<svg width="17" height="16" viewBox="0 0 17 16" fill="none" xmlns="http://www.w3.org/2000/svg">
<path d="M12.25 9.25C12.6445 9.25 12.9643 8.9302 12.9643 8.53571C12.9643 8.14122 12.6445 7.82143 12.25 7.82143C11.8555 7.82143 11.5357 8.14122 11.5357 8.53571C11.5357 8.9302 11.8555 9.25 12.25 9.25Z" fill="black" fill-opacity="0.12"/>
<path d="M12.25 12.1071C12.6445 12.1071 12.9643 11.7873 12.9643 11.3929C12.9643 10.9984 12.6445 10.6786 12.25 10.6786C11.8555 10.6786 11.5357 10.9984 11.5357 11.3929C11.5357 11.7873 11.8555 12.1071 12.25 12.1071Z" fill="black" fill-opacity="0.12"/>
<path d="M9.39286 8.53571C9.39286 8.9302 9.07306 9.25 8.67857 9.25C8.28408 9.25 7.96429 8.9302 7.96429 8.53571C7.96429 8.14122 8.28408 7.82143 8.67857 7.82143C9.07306 7.82143 9.39286 8.14122 9.39286 8.53571Z" fill="black" fill-opacity="0.12"/>
<path d="M9.39286 11.3929C9.39286 11.7873 9.07306 12.1071 8.67857 12.1071C8.28408 12.1071 7.96429 11.7873 7.96429 11.3929C7.96429 10.9984 8.28408 10.6786 8.67857 10.6786C9.07306 10.6786 9.39286 10.9984 9.39286 11.3929Z" fill="black" fill-opacity="0.12"/>
<path d="M5.10714 9.25C5.50163 9.25 5.82143 8.9302 5.82143 8.53571C5.82143 8.14122 5.50163 7.82143 5.10714 7.82143C4.71265 7.82143 4.39286 8.14122 4.39286 8.53571C4.39286 8.9302 4.71265 9.25 5.10714 9.25Z" fill="black" fill-opacity="0.12"/>
<path d="M5.10714 12.1071C5.50163 12.1071 5.82143 11.7873 5.82143 11.3929C5.82143 10.9984 5.50163 10.6786 5.10714 10.6786C4.71265 10.6786 4.39286 10.9984 4.39286 11.3929C4.39286 11.7873 4.71265 12.1071 5.10714 12.1071Z" fill="black" fill-opacity="0.12"/>
<path fill-rule="evenodd" clip-rule="evenodd" d="M5.10714 0.5C5.40301 0.5 5.64286 0.739847 5.64286 1.03571V1.58051C6.11571 1.57142 6.63666 1.57142 7.20961 1.57143H10.1474C10.7204 1.57142 11.2414 1.57142 11.7143 1.58051V1.03571C11.7143 0.739847 11.9541 0.5 12.25 0.5C12.5459 0.5 12.7857 0.739847 12.7857 1.03571V1.62649C12.9714 1.64065 13.1472 1.65844 13.3136 1.68081C14.151 1.7934 14.8289 2.03063 15.3634 2.56517C15.8979 3.09972 16.1352 3.77754 16.2478 4.61498C16.3572 5.4287 16.3572 6.46843 16.3571 7.7811V9.29029C16.3572 10.603 16.3572 11.6427 16.2478 12.4564C16.1352 13.2939 15.8979 13.9717 15.3634 14.5063C14.8289 15.0408 14.151 15.278 13.3136 15.3906C12.4999 15.5 11.4601 15.5 10.1475 15.5H7.20971C5.89704 15.5 4.85728 15.5 4.04356 15.3906C3.20611 15.278 2.52829 15.0408 1.99375 14.5063C1.4592 13.9717 1.22197 13.2939 1.10938 12.4564C0.99998 11.6427 0.999989 10.603 1 9.2903V7.78113C0.999989 6.46845 0.99998 5.42871 1.10938 4.61498C1.22197 3.77754 1.4592 3.09972 1.99375 2.56517C2.52829 2.03063 3.20611 1.7934 4.04356 1.68081C4.20993 1.65844 4.38576 1.64065 4.57143 1.62649V1.03571C4.57143 0.739847 4.81128 0.5 5.10714 0.5ZM4.18632 2.74268C3.46769 2.8393 3.05365 3.0205 2.75136 3.32279C2.44907 3.62508 2.26788 4.03911 2.17126 4.75775C2.15489 4.87945 2.14121 5.00758 2.12977 5.14286H15.2274C15.2159 5.00758 15.2023 4.87945 15.1859 4.75775C15.0893 4.03911 14.9081 3.62508 14.6058 3.32279C14.3035 3.0205 13.8895 2.8393 13.1708 2.74268C12.4368 2.64399 11.4692 2.64286 10.1071 2.64286H7.25C5.88799 2.64286 4.92037 2.64399 4.18632 2.74268ZM2.07143 7.82143C2.07143 7.21142 2.07166 6.68052 2.08078 6.21429H15.2764C15.2855 6.68052 15.2857 7.21142 15.2857 7.82143V9.25C15.2857 10.612 15.2846 11.5796 15.1859 12.3137C15.0893 13.0323 14.9081 13.4463 14.6058 13.7486C14.3035 14.0509 13.8895 14.2321 13.1708 14.3287C12.4368 14.4274 11.4692 14.4286 10.1071 14.4286H7.25C5.88799 14.4286 4.92037 14.4274 4.18632 14.3287C3.46769 14.2321 3.05365 14.0509 2.75136 13.7486C2.44907 13.4463 2.26788 13.0323 2.17126 12.3137C2.07257 11.5796 2.07143 10.612 2.07143 9.25V7.82143Z" fill="black" fill-opacity="0.12"/>
<path d="M12.25 9.35C12.6997 9.35 13.0643 8.98543 13.0643 8.53571C13.0643 8.086 12.6997 7.72143 12.25 7.72143C11.8003 7.72143 11.4357 8.086 11.4357 8.53571C11.4357 8.98543 11.8003 9.35 12.25 9.35ZM12.25 12.2071C12.6997 12.2071 13.0643 11.8426 13.0643 11.3929C13.0643 10.9431 12.6997 10.5786 12.25 10.5786C11.8003 10.5786 11.4357 10.9431 11.4357 11.3929C11.4357 11.8426 11.8003 12.2071 12.25 12.2071ZM8.67857 9.35C9.12829 9.35 9.49286 8.98543 9.49286 8.53571C9.49286 8.086 9.12829 7.72143 8.67857 7.72143C8.22886 7.72143 7.86429 8.086 7.86429 8.53571C7.86429 8.98543 8.22886 9.35 8.67857 9.35ZM8.67857 12.2071C9.12829 12.2071 9.49286 11.8426 9.49286 11.3929C9.49286 10.9431 9.12829 10.5786 8.67857 10.5786C8.22886 10.5786 7.86429 10.9431 7.86429 11.3929C7.86429 11.8426 8.22886 12.2071 8.67857 12.2071ZM5.10714 9.35C5.55686 9.35 5.92143 8.98543 5.92143 8.53571C5.92143 8.086 5.55686 7.72143 5.10714 7.72143C4.65743 7.72143 4.29286 8.086 4.29286 8.53571C4.29286 8.98543 4.65743 9.35 5.10714 9.35ZM5.10714 12.2071C5.55686 12.2071 5.92143 11.8426 5.92143 11.3929C5.92143 10.9431 5.55686 10.5786 5.10714 10.5786C4.65743 10.5786 4.29286 10.9431 4.29286 11.3929C4.29286 11.8426 4.65743 12.2071 5.10714 12.2071ZM5.74286 1.03571C5.74286 0.684619 5.45824 0.4 5.10714 0.4C4.75605 0.4 4.47143 0.684619 4.47143 1.03571V1.53419C4.31789 1.54715 4.17088 1.56279 4.03023 1.5817C3.18173 1.69578 2.47927 1.93823 1.92304 2.49446C1.3668 3.0507 1.12435 3.75316 1.01027 4.60166C0.899979 5.42202 0.899989 6.46719 0.9 7.7738L0.9 7.78113V9.2903L0.9 9.29763C0.899989 10.6042 0.899979 11.6494 1.01027 12.4698C1.12435 13.3183 1.3668 14.0207 1.92304 14.577C2.47927 15.1332 3.18173 15.3756 4.03023 15.4897C4.85058 15.6 5.89577 15.6 7.20234 15.6H7.20971H10.1475H10.1548C11.4614 15.6 12.5066 15.6 13.3269 15.4897C14.1754 15.3756 14.8779 15.1332 15.4341 14.577C15.9903 14.0207 16.2328 13.3183 16.3469 12.4698C16.4572 11.6494 16.4572 10.6042 16.4571 9.29763V9.29029V7.7811V7.77376C16.4572 6.46718 16.4572 5.42201 16.3469 4.60166C16.2328 3.75316 15.9903 3.0507 15.4341 2.49446C14.8779 1.93823 14.1754 1.69578 13.3269 1.5817C13.1863 1.56279 13.0393 1.54715 12.8857 1.53419V1.03571C12.8857 0.684619 12.6011 0.4 12.25 0.4C11.8989 0.4 11.6143 0.684619 11.6143 1.03571V1.47872C11.1678 1.47142 10.6798 1.47142 10.1481 1.47143H10.1474H7.20962H7.20892C6.67725 1.47142 6.18929 1.47142 5.74286 1.47872V1.03571ZM2.82207 3.3935C3.10271 3.11286 3.49215 2.93691 4.19965 2.84179C4.92547 2.74421 5.88512 2.74286 7.25 2.74286H10.1071C11.472 2.74286 12.4317 2.74421 13.1575 2.84179C13.865 2.93691 14.2544 3.11286 14.5351 3.3935C14.8157 3.67414 14.9917 4.06357 15.0868 4.77107C15.0985 4.85807 15.1088 4.94856 15.1179 5.04286H2.23923C2.24834 4.94856 2.25867 4.85807 2.27037 4.77107C2.36549 4.06357 2.54143 3.67414 2.82207 3.3935ZM2.17143 7.82143C2.17143 7.25364 2.17163 6.75545 2.17898 6.31429H15.1782C15.1855 6.75545 15.1857 7.25364 15.1857 7.82143V9.25C15.1857 10.6149 15.1844 11.5745 15.0868 12.3004C14.9917 13.0079 14.8157 13.3973 14.5351 13.6779C14.2544 13.9586 13.865 14.1345 13.1575 14.2296C12.4317 14.3272 11.472 14.3286 10.1071 14.3286H7.25C5.88512 14.3286 4.92547 14.3272 4.19965 14.2296C3.49215 14.1345 3.10271 13.9586 2.82207 13.6779C2.54143 13.3973 2.36549 13.0079 2.27037 12.3004C2.17278 11.5745 2.17143 10.6149 2.17143 9.25V7.82143Z" stroke="black" stroke-opacity="0.2" stroke-width="0.2"/>
</svg>
