<svg width="23" height="24" viewBox="0 0 23 24" fill="none" xmlns="http://www.w3.org/2000/svg">
<path d="M8.89038 6.95769C10.0515 4.87479 10.632 3.83334 11.5 3.83334C12.3679 3.83334 12.9485 4.87479 14.1096 6.95769L14.41 7.49656C14.7399 8.08845 14.9049 8.3844 15.1621 8.57967C15.4193 8.77494 15.7397 8.84742 16.3804 8.99239L16.9637 9.12437C19.2184 9.63452 20.3458 9.88959 20.614 10.7521C20.8822 11.6146 20.1137 12.5133 18.5766 14.3108L18.1789 14.7758C17.7421 15.2866 17.5237 15.542 17.4254 15.8579C17.3272 16.1739 17.3602 16.5146 17.4262 17.1961L17.4864 17.8165C17.7188 20.2147 17.835 21.4138 17.1328 21.9469C16.4306 22.4799 15.375 21.9939 13.2639 21.0219L12.7178 20.7704C12.1179 20.4942 11.8179 20.3561 11.5 20.3561C11.182 20.3561 10.8821 20.4942 10.2822 20.7704L9.73602 21.0219C7.62493 21.9939 6.56939 22.4799 5.8672 21.9469C5.16501 21.4138 5.2812 20.2147 5.51359 17.8165L5.57372 17.1961C5.63975 16.5146 5.67277 16.1739 5.57452 15.8579C5.47627 15.542 5.25787 15.2866 4.82107 14.7758L4.4234 14.3108C2.88629 12.5133 2.11774 11.6146 2.38595 10.7521C2.65416 9.88959 3.78152 9.63452 6.03622 9.12437L6.61954 8.99239C7.26026 8.84742 7.58062 8.77494 7.83785 8.57967C8.09507 8.3844 8.26005 8.08845 8.58999 7.49656L8.89038 6.95769Z" stroke="black" stroke-opacity="0.38" stroke-width="1.2"/>
</svg>
