<svg width="25" height="24" viewBox="0 0 25 24" fill="none" xmlns="http://www.w3.org/2000/svg">
<path fill-rule="evenodd" clip-rule="evenodd" d="M12.5 1.25C12.9142 1.25 13.25 1.58579 13.25 2V3C13.25 3.41421 12.9142 3.75 12.5 3.75C12.0858 3.75 11.75 3.41421 11.75 3V2C11.75 1.58579 12.0858 1.25 12.5 1.25ZM4.89861 4.39861C5.1915 4.10572 5.66638 4.10572 5.95927 4.39861L6.35211 4.79145C6.645 5.08434 6.645 5.55921 6.35211 5.85211C6.05921 6.145 5.58434 6.145 5.29145 5.85211L4.89861 5.45927C4.60572 5.16638 4.60572 4.6915 4.89861 4.39861ZM20.1011 4.39887C20.394 4.69176 20.394 5.16664 20.1011 5.45953L19.7083 5.85237C19.4154 6.14526 18.9405 6.14526 18.6476 5.85237C18.3547 5.55947 18.3547 5.0846 18.6476 4.79171L19.0405 4.39887C19.3334 4.10598 19.8082 4.10598 20.1011 4.39887ZM12.5 6.75C9.6005 6.75 7.25 9.1005 7.25 12C7.25 13.2135 7.66093 14.3296 8.35208 15.2187H11.75V11.8107L11.0303 12.5303C10.7374 12.8232 10.2626 12.8232 9.96967 12.5303C9.67678 12.2374 9.67678 11.7626 9.96967 11.4697L11.9697 9.46967C12.2626 9.17678 12.7374 9.17678 13.0303 9.46967L15.0303 11.4697C15.3232 11.7626 15.3232 12.2374 15.0303 12.5303C14.7374 12.8232 14.2626 12.8232 13.9697 12.5303L13.25 11.8107V15.2187H16.6479C17.3391 14.3296 17.75 13.2135 17.75 12C17.75 9.1005 15.3995 6.75 12.5 6.75ZM6.58267 15.25C6.0521 14.2858 5.75 13.1778 5.75 12C5.75 8.27208 8.77208 5.25 12.5 5.25C16.2279 5.25 19.25 8.27208 19.25 12C19.25 13.1778 18.9479 14.2858 18.4173 15.25H22.5C22.9142 15.25 23.25 15.5858 23.25 16C23.25 16.4142 22.9142 16.75 22.5 16.75H2.5C2.08579 16.75 1.75 16.4142 1.75 16C1.75 15.5858 2.08579 15.25 2.5 15.25H6.58267ZM1.75 12C1.75 11.5858 2.08579 11.25 2.5 11.25H3.5C3.91421 11.25 4.25 11.5858 4.25 12C4.25 12.4142 3.91421 12.75 3.5 12.75H2.5C2.08579 12.75 1.75 12.4142 1.75 12ZM20.75 12C20.75 11.5858 21.0858 11.25 21.5 11.25H22.5C22.9142 11.25 23.25 11.5858 23.25 12C23.25 12.4142 22.9142 12.75 22.5 12.75H21.5C21.0858 12.75 20.75 12.4142 20.75 12ZM4.75 19C4.75 18.5858 5.08579 18.25 5.5 18.25H19.5C19.9142 18.25 20.25 18.5858 20.25 19C20.25 19.4142 19.9142 19.75 19.5 19.75H5.5C5.08579 19.75 4.75 19.4142 4.75 19ZM7.75 22C7.75 21.5858 8.08579 21.25 8.5 21.25H16.5C16.9142 21.25 17.25 21.5858 17.25 22C17.25 22.4142 16.9142 22.75 16.5 22.75H8.5C8.08579 22.75 7.75 22.4142 7.75 22Z" fill="black" fill-opacity="0.38"/>
</svg>
