<svg width="14" height="14" viewBox="0 0 12 12" fill="none" xmlns="http://www.w3.org/2000/svg">
<path fill-rule="evenodd" clip-rule="evenodd" d="M4.08904 0.196801C4.21157 0.392848 4.15197 0.651105 3.95592 0.773634L1.72336 2.16898C1.52731 2.2915 1.26906 2.23191 1.14653 2.03586C1.024 1.83981 1.0836 1.58156 1.27965 1.45903L3.51221 0.0636838C3.70825 -0.058845 3.96651 0.000753407 4.08904 0.196801ZM8.40231 0.1968C8.52484 0.000752807 8.7831 -0.058845 8.97914 0.0636844L11.2117 1.45903C11.4077 1.58156 11.4673 1.83981 11.3448 2.03586C11.2223 2.23191 10.964 2.2915 10.768 2.16898L8.53542 0.773633C8.33938 0.651104 8.27978 0.392847 8.40231 0.1968ZM6.24567 1.95354C3.7026 1.95354 1.64104 4.0151 1.64104 6.55817C1.64104 9.10123 3.7026 11.1628 6.24567 11.1628C8.78873 11.1628 10.8503 9.10123 10.8503 6.55817C10.8503 4.0151 8.78873 1.95354 6.24567 1.95354ZM0.803833 6.55817C0.803833 3.55272 3.24023 1.11633 6.24567 1.11633C9.25111 1.11633 11.6875 3.55272 11.6875 6.55817C11.6875 9.56361 9.25111 12 6.24567 12C3.24023 12 0.803833 9.56361 0.803833 6.55817ZM6.24567 3.90701C6.47686 3.90701 6.66427 4.09443 6.66427 4.32562V6.38477L7.93701 7.65751C8.10048 7.82098 8.10048 8.08603 7.93701 8.2495C7.77353 8.41298 7.50849 8.41298 7.34501 8.2495L5.94967 6.85416C5.87117 6.77566 5.82706 6.66919 5.82706 6.55817V4.32562C5.82706 4.09443 6.01448 3.90701 6.24567 3.90701Z" fill="#1976D2"/>
</svg>
