<svg width="12" height="12" viewBox="0 0 12 12" fill="none" xmlns="http://www.w3.org/2000/svg">
    <path className="checkListIcon" fill-rule="evenodd" clip-rule="evenodd" d="M5.96798 1.18069e-07H6.03203C7.32043 -7.06776e-06 8.33013 -1.27582e-05 9.11793 0.105905C9.9243 0.214318 10.5606 0.440554 11.06 0.939983C11.5594 1.43941 11.7857 2.0757 11.8941 2.88207C12 3.66988 12 4.67957 12 5.96798V6.03202C12 7.32043 12 8.33013 11.8941 9.11793C11.7857 9.9243 11.5594 10.5606 11.06 11.06C10.5606 11.5594 9.9243 11.7857 9.11793 11.8941C8.33013 12 7.32043 12 6.03202 12H5.96798C4.67957 12 3.66988 12 2.88207 11.8941C2.0757 11.7857 1.43941 11.5594 0.939983 11.06C0.440554 10.5606 0.214318 9.9243 0.105905 9.11793C-1.27582e-05 8.33013 -7.06776e-06 7.32043 1.18069e-07 6.03203V5.96798C-7.06776e-06 4.67957 -1.27582e-05 3.66988 0.105905 2.88207C0.214318 2.0757 0.440554 1.43941 0.939983 0.939983C1.43941 0.440554 2.0757 0.214318 2.88207 0.105905C3.66988 -1.27582e-05 4.67957 -7.06776e-06 5.96798 1.18069e-07ZM2.99362 0.935649C2.2801 1.03158 1.84993 1.21403 1.53198 1.53198C1.21403 1.84993 1.03158 2.2801 0.935649 2.99362C0.838099 3.71919 0.83721 4.67262 0.83721 6C0.83721 7.32738 0.838099 8.28081 0.935649 9.00638C1.03158 9.7199 1.21403 10.1501 1.53198 10.468C1.84993 10.786 2.2801 10.9684 2.99362 11.0644C3.71919 11.1619 4.67262 11.1628 6 11.1628C7.32738 11.1628 8.28081 11.1619 9.00638 11.0644C9.7199 10.9684 10.1501 10.786 10.468 10.468C10.786 10.1501 10.9684 9.7199 11.0644 9.00638C11.1619 8.28081 11.1628 7.32738 11.1628 6C11.1628 4.67262 11.1619 3.71919 11.0644 2.99362C10.9684 2.2801 10.786 1.84993 10.468 1.53198C10.1501 1.21403 9.7199 1.03158 9.00638 0.935649C8.28081 0.838099 7.32738 0.83721 6 0.83721C4.67262 0.83721 3.71919 0.838099 2.99362 0.935649ZM5.17241 2.90618C5.33983 3.06562 5.34629 3.33058 5.18685 3.498L3.59216 5.17241C3.51316 5.25537 3.4036 5.30233 3.28904 5.30233C3.17447 5.30233 3.06492 5.25537 2.98591 5.17241L2.34804 4.50265C2.18859 4.33523 2.19506 4.07027 2.36247 3.91083C2.52988 3.75139 2.79485 3.75785 2.95429 3.92526L3.28904 4.27674L4.58059 2.92061C4.74003 2.7532 5.005 2.74673 5.17241 2.90618ZM6.13953 4.32558C6.13953 4.09439 6.32695 3.90698 6.55814 3.90698H9.34884C9.58003 3.90698 9.76744 4.09439 9.76744 4.32558C9.76744 4.55677 9.58003 4.74419 9.34884 4.74419H6.55814C6.32695 4.74419 6.13953 4.55677 6.13953 4.32558ZM5.17241 6.81315C5.33983 6.97259 5.34629 7.23756 5.18685 7.40497L3.59216 9.07939C3.51316 9.16235 3.4036 9.2093 3.28904 9.2093C3.17447 9.2093 3.06492 9.16235 2.98591 9.07939L2.34804 8.40962C2.18859 8.24221 2.19506 7.97724 2.36247 7.8178C2.52988 7.65836 2.79485 7.66482 2.95429 7.83224L3.28904 8.18372L4.58059 6.82759C4.74003 6.66017 5.005 6.65371 5.17241 6.81315ZM6.13953 8.23256C6.13953 8.00137 6.32695 7.81395 6.55814 7.81395H9.34884C9.58003 7.81395 9.76744 8.00137 9.76744 8.23256C9.76744 8.46375 9.58003 8.65116 9.34884 8.65116H6.55814C6.32695 8.65116 6.13953 8.46375 6.13953 8.23256Z" fill="black" fill-opacity="0.6"/>
</svg>
