<svg width="16" height="14" viewBox="0 0 16 14" fill="none" xmlns="http://www.w3.org/2000/svg">
<path fill-rule="evenodd" clip-rule="evenodd" d="M5.37244 0.157712C5.58272 -0.0525706 5.92366 -0.0525706 6.13394 0.157712L7.56984 1.59361C7.72384 1.74761 7.7699 1.97921 7.68656 2.18042C7.60322 2.38163 7.40687 2.51282 7.18909 2.51282H5.75319C3.27499 2.51282 1.26601 4.5218 1.26601 7C1.26601 9.47817 3.27516 11.4872 5.75339 11.4872H6.11216C6.40955 11.4872 6.65063 11.7283 6.65063 12.0256C6.65063 12.323 6.40955 12.5641 6.11216 12.5641H5.75339C2.68045 12.5641 0.189087 10.073 0.189087 7C0.189087 3.92703 2.68022 1.4359 5.75319 1.4359H5.88913L5.37244 0.919211C5.16216 0.708929 5.16216 0.367994 5.37244 0.157712ZM9.16345 1.97436C9.16345 1.67697 9.40452 1.4359 9.70191 1.4359H10.0609C13.1339 1.4359 15.625 3.92703 15.625 7C15.625 10.073 13.1339 12.5641 10.0609 12.5641H9.92495L10.4416 13.0808C10.6519 13.2911 10.6519 13.632 10.4416 13.8423C10.2313 14.0526 9.89041 14.0526 9.68013 13.8423L8.24424 12.4064C8.09024 12.2524 8.04417 12.0208 8.12751 11.8196C8.21085 11.6184 8.4072 11.4872 8.62498 11.4872H10.0609C12.5391 11.4872 14.5481 9.4782 14.5481 7C14.5481 4.5218 12.5391 2.51282 10.0609 2.51282H9.70191C9.40452 2.51282 9.16345 2.27174 9.16345 1.97436Z" fill="black" fill-opacity="0.38"/>
</svg>
