<svg width="16" height="17" viewBox="0 0 16 17" fill="none" xmlns="http://www.w3.org/2000/svg">
<path d="M6.25673 4.21544C7.08006 2.73848 7.49172 2 8.10718 2C8.72264 2 9.1343 2.73848 9.95762 4.21544L10.1706 4.59755C10.4046 5.01726 10.5216 5.22711 10.704 5.36557C10.8864 5.50404 11.1135 5.55544 11.5679 5.65823L11.9815 5.75182C13.5803 6.11356 14.3797 6.29443 14.5699 6.90602C14.76 7.51762 14.2151 8.1549 13.1251 9.42945L12.8431 9.75919C12.5334 10.1214 12.3785 10.3025 12.3089 10.5265C12.2392 10.7506 12.2626 10.9922 12.3094 11.4754L12.3521 11.9154C12.5169 13.6159 12.5992 14.4662 12.1013 14.8441C11.6034 15.2221 10.8549 14.8775 9.35799 14.1883L8.97071 14.0099C8.54533 13.8141 8.33263 13.7162 8.10718 13.7162C7.88172 13.7162 7.66903 13.8141 7.24364 14.0099L6.85637 14.1883C5.35942 14.8775 4.61094 15.2221 4.11302 14.8441C3.61511 14.4662 3.6975 13.6159 3.86229 11.9154L3.90492 11.4754C3.95174 10.9922 3.97516 10.7506 3.90549 10.5265C3.83582 10.3025 3.68095 10.1214 3.37122 9.75919L3.08924 9.42945C1.99929 8.1549 1.45431 7.51762 1.6445 6.90602C1.83469 6.29443 2.63408 6.11356 4.23288 5.75182L4.6465 5.65823C5.10083 5.55544 5.32799 5.50404 5.51039 5.36557C5.69279 5.22711 5.80977 5.01726 6.04373 4.59755L6.25673 4.21544Z" stroke="#1976D2" stroke-width="1.2"/>
</svg>
