<svg width="17" height="16" viewBox="0 0 17 16" fill="none" xmlns="http://www.w3.org/2000/svg">
<path fill-rule="evenodd" clip-rule="evenodd" d="M8.85718 0C9.16543 0 9.41532 0.249888 9.41532 0.55814V1.30233C9.41532 1.61058 9.16543 1.86047 8.85718 1.86047C8.54893 1.86047 8.29904 1.61058 8.29904 1.30233V0.55814C8.29904 0.249888 8.54893 0 8.85718 0ZM3.20033 2.34315C3.4183 2.12518 3.77169 2.12518 3.98966 2.34315L4.282 2.6355C4.49997 2.85346 4.49997 3.20686 4.282 3.42482C4.06403 3.64279 3.71064 3.64279 3.49267 3.42482L3.20033 3.13248C2.98236 2.91451 2.98236 2.56112 3.20033 2.34315ZM14.5138 2.34334C14.7318 2.56131 14.7318 2.91471 14.5138 3.13267L14.2215 3.42502C14.0035 3.64298 13.6501 3.64298 13.4322 3.42502C13.2142 3.20705 13.2142 2.85366 13.4322 2.63569L13.7245 2.34334C13.9425 2.12538 14.2959 2.12538 14.5138 2.34334ZM8.85718 4.09302C6.69941 4.09302 4.9502 5.84224 4.9502 8C4.9502 8.9031 5.25601 9.73365 5.77035 10.3953H8.29904V7.8591L7.76347 8.39466C7.5455 8.61263 7.19211 8.61263 6.97414 8.39466C6.75617 8.1767 6.75617 7.8233 6.97414 7.60534L8.46251 6.11696C8.68048 5.899 9.03388 5.899 9.25184 6.11696L10.7402 7.60534C10.9582 7.8233 10.9582 8.1767 10.7402 8.39466C10.5222 8.61263 10.1689 8.61263 9.95089 8.39466L9.41532 7.8591V10.3953H11.944C12.4583 9.73365 12.7642 8.9031 12.7642 8C12.7642 5.84224 11.0149 4.09302 8.85718 4.09302ZM4.45359 10.4186C4.05874 9.70107 3.83392 8.87647 3.83392 8C3.83392 5.22573 6.08291 2.97674 8.85718 2.97674C11.6314 2.97674 13.8804 5.22573 13.8804 8C13.8804 8.87647 13.6556 9.70107 13.2608 10.4186H16.299C16.6073 10.4186 16.8572 10.6685 16.8572 10.9767C16.8572 11.285 16.6073 11.5349 16.299 11.5349H1.41532C1.10707 11.5349 0.857178 11.285 0.857178 10.9767C0.857178 10.6685 1.10707 10.4186 1.41532 10.4186H4.45359ZM0.857178 8C0.857178 7.69175 1.10707 7.44186 1.41532 7.44186H2.1595C2.46776 7.44186 2.71764 7.69175 2.71764 8C2.71764 8.30825 2.46776 8.55814 2.1595 8.55814H1.41532C1.10707 8.55814 0.857178 8.30825 0.857178 8ZM14.9967 8C14.9967 7.69175 15.2466 7.44186 15.5549 7.44186H16.299C16.6073 7.44186 16.8572 7.69175 16.8572 8C16.8572 8.30825 16.6073 8.55814 16.299 8.55814H15.5549C15.2466 8.55814 14.9967 8.30825 14.9967 8ZM3.08974 13.2093C3.08974 12.9011 3.33962 12.6512 3.64788 12.6512H14.0665C14.3747 12.6512 14.6246 12.9011 14.6246 13.2093C14.6246 13.5176 14.3747 13.7674 14.0665 13.7674H3.64788C3.33962 13.7674 3.08974 13.5176 3.08974 13.2093ZM5.32229 15.4419C5.32229 15.1336 5.57218 14.8837 5.88043 14.8837H11.8339C12.1422 14.8837 12.3921 15.1336 12.3921 15.4419C12.3921 15.7501 12.1422 16 11.8339 16H5.88043C5.57218 16 5.32229 15.7501 5.32229 15.4419Z" fill="#1976D2"/>
</svg>
