<svg width="12" height="12" viewBox="0 0 12 12" fill="none" xmlns="http://www.w3.org/2000/svg">
<path d="M8.37209 7.67442C8.37209 7.90561 8.55951 8.09302 8.7907 8.09302C9.02189 8.09302 9.2093 7.90561 9.2093 7.67442L9.2093 2.65116C9.2093 2.41997 9.02189 2.23256 8.7907 2.23256C8.55951 2.23256 8.37209 2.41997 8.37209 2.65116L8.37209 7.67442Z" fill="white" fill-opacity="0.38"/>
<path d="M6 9.76744C5.76881 9.76744 5.5814 9.58003 5.5814 9.34884L5.5814 2.65116C5.5814 2.41997 5.76881 2.23256 6 2.23256C6.23119 2.23256 6.4186 2.41997 6.4186 2.65116L6.4186 9.34884C6.4186 9.58003 6.23119 9.76744 6 9.76744Z" fill="white" fill-opacity="0.38"/>
<path d="M2.7907 5.44186C2.7907 5.67305 2.97811 5.86047 3.2093 5.86047C3.44049 5.86047 3.62791 5.67305 3.62791 5.44186L3.62791 2.65116C3.62791 2.41997 3.44049 2.23256 3.2093 2.23256C2.97811 2.23256 2.7907 2.41997 2.7907 2.65116L2.7907 5.44186Z" fill="white" fill-opacity="0.38"/>
<path fill-rule="evenodd" clip-rule="evenodd" d="M6.03202 12C7.32043 12 8.33012 12 9.11793 11.8941C9.9243 11.7857 10.5606 11.5594 11.06 11.06C11.5594 10.5606 11.7857 9.9243 11.8941 9.11793C12 8.33012 12 7.32043 12 6.03202V5.96797C12 4.67957 12 3.66987 11.8941 2.88207C11.7857 2.0757 11.5594 1.43941 11.06 0.939982C10.5606 0.440554 9.9243 0.214317 9.11793 0.105905C8.33012 -1.33514e-05 7.32043 -7.62939e-06 6.03202 -9.53674e-07H5.96798C4.67957 -7.62939e-06 3.66988 -1.33514e-05 2.88207 0.105905C2.0757 0.214317 1.43941 0.440554 0.939982 0.939982C0.440554 1.43941 0.214317 2.0757 0.105905 2.88207C-1.33514e-05 3.66988 -7.62939e-06 4.67957 -9.53674e-07 5.96798V6.03202C-7.62939e-06 7.32043 -1.33514e-05 8.33012 0.105905 9.11793C0.214317 9.9243 0.440554 10.5606 0.939982 11.06C1.43941 11.5594 2.0757 11.7857 2.88207 11.8941C3.66987 12 4.67957 12 5.96797 12H6.03202ZM10.468 10.468C10.1501 10.786 9.7199 10.9684 9.00638 11.0644C8.28081 11.1619 7.32738 11.1628 6 11.1628C4.67262 11.1628 3.71919 11.1619 2.99362 11.0644C2.2801 10.9684 1.84993 10.786 1.53198 10.468C1.21403 10.1501 1.03158 9.7199 0.935648 9.00638C0.838098 8.28081 0.837209 7.32738 0.837209 6C0.837209 4.67262 0.838098 3.71919 0.935648 2.99362C1.03158 2.2801 1.21403 1.84993 1.53198 1.53198C1.84993 1.21403 2.2801 1.03158 2.99362 0.935648C3.71919 0.838098 4.67262 0.837209 6 0.837209C7.32738 0.837209 8.28081 0.838098 9.00638 0.935648C9.7199 1.03158 10.1501 1.21403 10.468 1.53198C10.786 1.84993 10.9684 2.2801 11.0644 2.99362C11.1619 3.71919 11.1628 4.67262 11.1628 6C11.1628 7.32738 11.1619 8.28081 11.0644 9.00638C10.9684 9.7199 10.786 10.1501 10.468 10.468Z" fill="white" fill-opacity="0.38"/>
</svg>
