<svg width="14" height="14" viewBox="0 0 14 14" fill="none" xmlns="http://www.w3.org/2000/svg">
<path fill-rule="evenodd" clip-rule="evenodd" d="M4.32423 0.229601C4.46718 0.458323 4.39765 0.759622 4.16892 0.902573L1.56427 2.53047C1.33555 2.67342 1.03425 2.60389 0.891298 2.37517C0.748348 2.14645 0.817879 1.84515 1.0466 1.7022L3.65125 0.0742977C3.87998 -0.0686525 4.18128 0.000878975 4.32423 0.229601ZM9.35637 0.2296C9.49933 0.000878275 9.80062 -0.0686525 10.0293 0.0742984L12.634 1.7022C12.8627 1.84515 12.9322 2.14645 12.7893 2.37517C12.6463 2.60389 12.345 2.67342 12.1163 2.53047L9.51168 0.902572C9.28295 0.759621 9.21342 0.458321 9.35637 0.2296ZM6.84029 2.27912C3.87338 2.27912 1.46823 4.68428 1.46823 7.65119C1.46823 10.6181 3.87338 13.0233 6.84029 13.0233C9.8072 13.0233 12.2124 10.6181 12.2124 7.65119C12.2124 4.68428 9.8072 2.27912 6.84029 2.27912ZM0.491486 7.65119C0.491486 4.14484 3.33394 1.30238 6.84029 1.30238C10.3466 1.30238 13.1891 4.14484 13.1891 7.65119C13.1891 11.1575 10.3466 14 6.84029 14C3.33394 14 0.491486 11.1575 0.491486 7.65119ZM6.84029 4.55818C7.11001 4.55818 7.32866 4.77683 7.32866 5.04655V7.4489L8.81352 8.93376C9.00424 9.12448 9.00424 9.4337 8.81352 9.62442C8.6228 9.81514 8.31358 9.81514 8.12286 9.62442L6.49496 7.99652C6.40338 7.90494 6.35192 7.78072 6.35192 7.65119V5.04655C6.35192 4.77683 6.57057 4.55818 6.84029 4.55818Z" fill="#1976D2"/>
</svg>
