<svg width="12" height="12" viewBox="0 0 12 12" fill="none" xmlns="http://www.w3.org/2000/svg">
<path fill-rule="evenodd" clip-rule="evenodd" d="M5.57487 0.864491C5.23214 0.909784 4.80894 1.00699 4.20692 1.14592L3.52142 1.30411C3.01295 1.42145 2.66278 1.5028 2.39532 1.59459C2.13711 1.68321 1.99104 1.77058 1.88081 1.88081C1.77058 1.99103 1.68321 2.13711 1.59459 2.39532C1.5028 2.66278 1.42145 3.01295 1.30411 3.52142L1.14592 4.20692C1.00699 4.80894 0.909784 5.23214 0.864491 5.57487C0.820367 5.90875 0.83054 6.13466 0.889439 6.34003C0.948338 6.5454 1.05944 6.74236 1.27382 7.0021C1.49387 7.26873 1.8006 7.57608 2.23748 8.01296L3.25867 9.03415C4.01745 9.79294 4.55739 10.3316 5.02159 10.6858C5.47612 11.0326 5.80849 11.1628 6.14641 11.1628C6.48433 11.1628 6.81671 11.0326 7.27124 10.6858C7.73543 10.3316 8.27537 9.79294 9.03415 9.03415C9.79294 8.27537 10.3316 7.73543 10.6858 7.27124C11.0326 6.81671 11.1628 6.48433 11.1628 6.14641C11.1628 5.80849 11.0326 5.47612 10.6858 5.02159C10.3316 4.55739 9.79294 4.01745 9.03415 3.25867L8.01296 2.23748C7.57608 1.8006 7.26873 1.49387 7.0021 1.27382C6.74236 1.05944 6.5454 0.948338 6.34003 0.889439C6.13466 0.83054 5.90875 0.820367 5.57487 0.864491ZM5.46518 0.0344983C5.86554 -0.0184116 6.2166 -0.0169184 6.57083 0.0846725C6.92506 0.186263 7.22355 0.37106 7.53501 0.628119C7.83611 0.876619 8.17143 1.21195 8.59034 1.63087L9.64845 2.68897C10.38 3.42047 10.9591 3.99962 11.3514 4.51375C11.755 5.04276 12 5.55184 12 6.14641C12 6.74099 11.755 7.25007 11.3514 7.77908C10.9591 8.29321 10.38 8.87236 9.64844 9.60386L9.60386 9.64844C8.87236 10.38 8.29321 10.9591 7.77908 11.3514C7.25007 11.755 6.74099 12 6.14641 12C5.55184 12 5.04276 11.755 4.51375 11.3514C3.99961 10.9591 3.42046 10.38 2.68896 9.64843L1.63086 8.59033C1.21194 8.17143 0.876618 7.83611 0.628119 7.53501C0.37106 7.22355 0.186263 6.92506 0.0846725 6.57083C-0.0169184 6.2166 -0.0184116 5.86554 0.0344983 5.46518C0.0856461 5.07815 0.192282 4.61608 0.3255 4.03882L0.493313 3.31163C0.604476 2.8299 0.695124 2.43706 0.802724 2.12355C0.915097 1.79613 1.05663 1.52099 1.28881 1.28881C1.52099 1.05663 1.79613 0.915097 2.12355 0.802724C2.43706 0.695124 2.8299 0.604475 3.31164 0.493312L4.03882 0.325501C4.61608 0.192282 5.07815 0.0856462 5.46518 0.0344983ZM4.59959 3.76473C4.32713 3.49227 3.88539 3.49227 3.61293 3.76473C3.34047 4.03719 3.34047 4.47893 3.61293 4.75139C3.88539 5.02385 4.32713 5.02385 4.59959 4.75139C4.87205 4.47893 4.87205 4.03719 4.59959 3.76473ZM3.02094 3.17273C3.62035 2.57333 4.59218 2.57333 5.19159 3.17273C5.791 3.77214 5.791 4.74398 5.19159 5.34339C4.59218 5.9428 3.62035 5.9428 3.02094 5.34339C2.42153 4.74398 2.42153 3.77214 3.02094 3.17273ZM9.93548 5.43637C10.099 5.59985 10.099 5.86489 9.93549 6.02837L6.04024 9.92376C5.87676 10.0872 5.61172 10.0872 5.44824 9.92377C5.28476 9.7603 5.28476 9.49526 5.44823 9.33178L9.34349 5.43638C9.50696 5.27291 9.77201 5.2729 9.93548 5.43637Z" fill="black" fill-opacity="0.6"/>
</svg>
