<svg width="14" height="12" viewBox="0 0 14 12" fill="none" xmlns="http://www.w3.org/2000/svg">
<path fill-rule="evenodd" clip-rule="evenodd" d="M4.54245 0.135181C4.72269 -0.0450605 5.01492 -0.0450605 5.19517 0.135181L6.42594 1.36595C6.55793 1.49795 6.59742 1.69647 6.52598 1.86893C6.45455 2.0414 6.28625 2.15385 6.09958 2.15385H4.86881C2.74464 2.15385 1.02266 3.87583 1.02266 6C1.02266 8.12415 2.74478 9.84615 4.86898 9.84615H5.1765C5.4314 9.84615 5.63804 10.0528 5.63804 10.3077C5.63804 10.5626 5.4314 10.7692 5.1765 10.7692H4.86898C2.23503 10.7692 0.0995789 8.634 0.0995789 6C0.0995789 3.36603 2.23484 1.23077 4.86881 1.23077H4.98533L4.54245 0.787895C4.36221 0.607653 4.36221 0.315423 4.54245 0.135181ZM7.79189 1.69231C7.79189 1.43741 7.99852 1.23077 8.25342 1.23077H8.56112C11.1951 1.23077 13.3303 3.36603 13.3303 6C13.3303 8.63397 11.1951 10.7692 8.56112 10.7692H8.4446L8.88747 11.2121C9.06772 11.3923 9.06772 11.6846 8.88747 11.8648C8.70723 12.0451 8.415 12.0451 8.23476 11.8648L7.00399 10.634C6.87199 10.5021 6.8325 10.3035 6.90394 10.1311C6.97538 9.9586 7.14367 9.84615 7.33035 9.84615H8.56112C10.6853 9.84615 12.4073 8.12417 12.4073 6C12.4073 3.87583 10.6853 2.15385 8.56112 2.15385H8.25342C7.99852 2.15385 7.79189 1.94721 7.79189 1.69231Z" fill="#1976D2"/>
</svg>

