<svg width="13" height="13" viewBox="0 0 13 13" fill="none" xmlns="http://www.w3.org/2000/svg">
<path d="M11.8181 0.277292C11.4606 -0.0802081 10.8831 -0.0802081 10.5256 0.277292L6.04313 4.75062L1.56063 0.268125C1.20313 -0.089375 0.625625 -0.089375 0.268125 0.268125C-0.089375 0.625625 -0.089375 1.20313 0.268125 1.56063L4.75063 6.04312L0.268125 10.5256C-0.089375 10.8831 -0.089375 11.4606 0.268125 11.8181C0.625625 12.1756 1.20313 12.1756 1.56063 11.8181L6.04313 7.33562L10.5256 11.8181C10.8831 12.1756 11.4606 12.1756 11.8181 11.8181C12.1756 11.4606 12.1756 10.8831 11.8181 10.5256L7.33563 6.04312L11.8181 1.56063C12.1665 1.21229 12.1665 0.625625 11.8181 0.277292Z" fill="black" fill-opacity="0.38"/>
</svg>
