<svg xmlns="http://www.w3.org/2000/svg" width="20" height="20" viewBox="0 0 20 20" fill="none">
  <path d="M14.5 11.5C14.9734 11.5 15.3571 11.1162 15.3571 10.6429C15.3571 10.1695 14.9734 9.78571 14.5 9.78571C14.0266 9.78571 13.6429 10.1695 13.6429 10.6429C13.6429 11.1162 14.0266 11.5 14.5 11.5Z" fill="white" fill-opacity="0.12"/>
  <path d="M14.5 14.9286C14.9734 14.9286 15.3571 14.5448 15.3571 14.0714C15.3571 13.598 14.9734 13.2143 14.5 13.2143C14.0266 13.2143 13.6429 13.598 13.6429 14.0714C13.6429 14.5448 14.0266 14.9286 14.5 14.9286Z" fill="white" fill-opacity="0.12"/>
  <path d="M11.0714 10.6429C11.0714 11.1162 10.6877 11.5 10.2143 11.5C9.7409 11.5 9.35715 11.1162 9.35715 10.6429C9.35715 10.1695 9.7409 9.78571 10.2143 9.78571C10.6877 9.78571 11.0714 10.1695 11.0714 10.6429Z" fill="white" fill-opacity="0.12"/>
  <path d="M11.0714 14.0714C11.0714 14.5448 10.6877 14.9286 10.2143 14.9286C9.7409 14.9286 9.35715 14.5448 9.35715 14.0714C9.35715 13.598 9.7409 13.2143 10.2143 13.2143C10.6877 13.2143 11.0714 13.598 11.0714 14.0714Z" fill="white" fill-opacity="0.12"/>
  <path d="M5.92857 11.5C6.40196 11.5 6.78572 11.1162 6.78572 10.6429C6.78572 10.1695 6.40196 9.78571 5.92857 9.78571C5.45519 9.78571 5.07143 10.1695 5.07143 10.6429C5.07143 11.1162 5.45519 11.5 5.92857 11.5Z" fill="white" fill-opacity="0.12"/>
  <path d="M5.92857 14.9286C6.40196 14.9286 6.78572 14.5448 6.78572 14.0714C6.78572 13.598 6.40196 13.2143 5.92857 13.2143C5.45519 13.2143 5.07143 13.598 5.07143 14.0714C5.07143 14.5448 5.45519 14.9286 5.92857 14.9286Z" fill="white" fill-opacity="0.12"/>
  <path fill-rule="evenodd" clip-rule="evenodd" d="M5.92857 1C6.28361 1 6.57143 1.28782 6.57143 1.64286V2.29662C7.13886 2.2857 7.764 2.28571 8.45154 2.28571H11.9769C12.6645 2.28571 13.2897 2.2857 13.8571 2.29662V1.64286C13.8571 1.28782 14.145 1 14.5 1C14.855 1 15.1429 1.28782 15.1429 1.64286V2.35179C15.3657 2.36878 15.5767 2.39013 15.7763 2.41697C16.7812 2.55208 17.5946 2.83675 18.2361 3.47821C18.8775 4.11966 19.1622 4.93305 19.2973 5.93798C19.4286 6.91444 19.4286 8.16212 19.4286 9.73732V11.5484C19.4286 13.1236 19.4286 14.3713 19.2973 15.3477C19.1622 16.3527 18.8775 17.1661 18.2361 17.8075C17.5946 18.449 16.7812 18.7336 15.7763 18.8687C14.7998 19 13.5522 19 11.977 19H8.45165C6.87644 19 5.62873 19 4.65227 18.8687C3.64733 18.7336 2.83395 18.449 2.19249 17.8075C1.55104 17.1661 1.26637 16.3527 1.13126 15.3477C0.999976 14.3713 0.999987 13.1236 1 11.5484V9.73736C0.999987 8.16213 0.999976 6.91445 1.13126 5.93798C1.26637 4.93305 1.55104 4.11966 2.19249 3.47821C2.83395 2.83675 3.64733 2.55208 4.65227 2.41697C4.85192 2.39013 5.06291 2.36878 5.28572 2.35179V1.64286C5.28572 1.28782 5.57353 1 5.92857 1ZM4.82359 3.69122C3.96122 3.80716 3.46438 4.02459 3.10163 4.38735C2.73888 4.7501 2.52145 5.24694 2.40551 6.1093C2.38587 6.25534 2.36946 6.40909 2.35573 6.57143H18.0728C18.0591 6.40909 18.0427 6.25534 18.0231 6.1093C17.9071 5.24694 17.6897 4.7501 17.3269 4.38735C16.9642 4.02459 16.4674 3.80716 15.605 3.69122C14.7241 3.57279 13.563 3.57143 11.9286 3.57143H8.5C6.86558 3.57143 5.70444 3.57279 4.82359 3.69122ZM2.28572 9.78571C2.28572 9.0537 2.28599 8.41662 2.29693 7.85714H18.1316C18.1426 8.41662 18.1429 9.0537 18.1429 9.78571V11.5C18.1429 13.1344 18.1415 14.2956 18.0231 15.1764C17.9071 16.0388 17.6897 16.5356 17.3269 16.8984C16.9642 17.2611 16.4674 17.4786 15.605 17.5945C14.7241 17.7129 13.563 17.7143 11.9286 17.7143H8.5C6.86558 17.7143 5.70444 17.7129 4.82359 17.5945C3.96122 17.4786 3.46438 17.2611 3.10163 16.8984C2.73888 16.5356 2.52145 16.0388 2.40551 15.1764C2.28708 14.2956 2.28572 13.1344 2.28572 11.5V9.78571Z" fill="white" fill-opacity="0.12"/>
  <path d="M6.67143 1.64286C6.67143 1.23259 6.33884 0.9 5.92857 0.9C5.5183 0.9 5.18572 1.23259 5.18572 1.64286V2.25943C4.99511 2.27524 4.81293 2.29447 4.63894 2.31786C3.62295 2.45446 2.78493 2.74435 2.12178 3.4075C1.45864 4.07064 1.16875 4.90866 1.03215 5.92466C0.899975 6.90776 0.899986 8.16088 0.9 9.73L0.9 9.73736V11.5484L0.9 11.5557C0.899986 13.1248 0.899975 14.3779 1.03215 15.3611C1.16875 16.377 1.45864 17.2151 2.12178 17.8782C2.78493 18.5414 3.62295 18.8313 4.63894 18.9678C5.62204 19.1 6.87519 19.1 8.44431 19.1H8.45165H11.977H11.9843C13.5534 19.1 14.8065 19.1 15.7896 18.9678C16.8056 18.8313 17.6436 18.5414 18.3068 17.8782C18.9699 17.2151 19.2598 16.377 19.3964 15.3611C19.5286 14.3779 19.5286 13.1248 19.5286 11.5556V11.5484V9.73732V9.73005C19.5286 8.1609 19.5286 6.90777 19.3964 5.92466C19.2598 4.90866 18.9699 4.07064 18.3068 3.4075C17.6436 2.74435 16.8056 2.45446 15.7896 2.31786C15.6156 2.29447 15.4335 2.27525 15.2429 2.25943V1.64286C15.2429 1.23259 14.9103 0.9 14.5 0.9C14.0897 0.9 13.7571 1.23259 13.7571 1.64286V2.1948C13.2161 2.1857 12.6238 2.18571 11.9776 2.18571H11.9769H8.45154H8.45084C7.80464 2.18571 7.21249 2.1857 6.67143 2.1948V1.64286ZM3.17234 4.45806C3.51344 4.11696 3.98568 3.90477 4.83691 3.79033C5.70954 3.67301 6.86272 3.67143 8.5 3.67143H11.9286C13.5659 3.67143 14.719 3.67301 15.5917 3.79033C16.4429 3.90477 16.9151 4.11696 17.2562 4.45806C17.5973 4.79915 17.8095 5.2714 17.924 6.12262C17.9389 6.23402 17.952 6.35014 17.9635 6.47143H2.46507C2.47654 6.35014 2.48964 6.23402 2.50462 6.12262C2.61906 5.2714 2.83125 4.79915 3.17234 4.45806ZM2.38572 9.78571C2.38572 9.09597 2.38596 8.4916 2.39512 7.95714H18.0335C18.0426 8.4916 18.0429 9.09597 18.0429 9.78571V11.5C18.0429 13.1373 18.0413 14.2905 17.924 15.1631C17.8095 16.0143 17.5973 16.4866 17.2562 16.8277C16.9151 17.1688 16.4429 17.3809 15.5917 17.4954C14.719 17.6127 13.5659 17.6143 11.9286 17.6143H8.5C6.86272 17.6143 5.70954 17.6127 4.83691 17.4954C3.98568 17.3809 3.51344 17.1688 3.17234 16.8277C2.83125 16.4866 2.61906 16.0143 2.50462 15.1631C2.38729 14.2905 2.38572 13.1373 2.38572 11.5V9.78571ZM14.5 11.6C15.0286 11.6 15.4571 11.1715 15.4571 10.6429C15.4571 10.1142 15.0286 9.68571 14.5 9.68571C13.9714 9.68571 13.5429 10.1142 13.5429 10.6429C13.5429 11.1715 13.9714 11.6 14.5 11.6ZM14.5 15.0286C15.0286 15.0286 15.4571 14.6 15.4571 14.0714C15.4571 13.5428 15.0286 13.1143 14.5 13.1143C13.9714 13.1143 13.5429 13.5428 13.5429 14.0714C13.5429 14.6 13.9714 15.0286 14.5 15.0286ZM10.2143 11.6C10.7429 11.6 11.1714 11.1715 11.1714 10.6429C11.1714 10.1142 10.7429 9.68571 10.2143 9.68571C9.68567 9.68571 9.25714 10.1142 9.25714 10.6429C9.25714 11.1715 9.68567 11.6 10.2143 11.6ZM10.2143 15.0286C10.7429 15.0286 11.1714 14.6 11.1714 14.0714C11.1714 13.5428 10.7429 13.1143 10.2143 13.1143C9.68567 13.1143 9.25714 13.5428 9.25714 14.0714C9.25714 14.6 9.68567 15.0286 10.2143 15.0286ZM5.92857 11.6C6.45719 11.6 6.88572 11.1715 6.88572 10.6429C6.88572 10.1142 6.45719 9.68571 5.92857 9.68571C5.39996 9.68571 4.97143 10.1142 4.97143 10.6429C4.97143 11.1715 5.39996 11.6 5.92857 11.6ZM5.92857 15.0286C6.45719 15.0286 6.88572 14.6 6.88572 14.0714C6.88572 13.5428 6.45719 13.1143 5.92857 13.1143C5.39996 13.1143 4.97143 13.5428 4.97143 14.0714C4.97143 14.6 5.39996 15.0286 5.92857 15.0286Z" stroke="white" stroke-opacity="0.2" stroke-width="0.2"/>
</svg>