<svg width="15" height="15" viewBox="0 0 16 16" fill="none" xmlns="http://www.w3.org/2000/svg">
<path fill-rule="evenodd" clip-rule="evenodd" d="M4.4375 0.5C4.73336 0.5 4.97321 0.739847 4.97321 1.03571V1.58051C5.44609 1.57142 5.96707 1.57142 6.54006 1.57143H9.47779C10.0508 1.57142 10.5718 1.57142 11.0446 1.58051V1.03571C11.0446 0.739847 11.2845 0.5 11.5804 0.5C11.8762 0.5 12.1161 0.739847 12.1161 1.03571V1.62649C12.3017 1.64065 12.4776 1.65844 12.6439 1.68081C13.4814 1.7934 14.1592 2.03063 14.6938 2.56517C15.2283 3.09972 15.4655 3.77754 15.5781 4.61498C15.6141 4.88262 15.6382 5.17471 15.6544 5.49291C15.6758 5.55076 15.6875 5.6133 15.6875 5.67857C15.6875 5.72809 15.6808 5.77603 15.6682 5.82155C15.6875 6.39439 15.6875 7.04482 15.6875 7.78114V9.29029C15.6875 10.603 15.6875 11.6427 15.5781 12.4564C15.4655 13.2939 15.2283 13.9717 14.6938 14.5063C14.1592 15.0408 13.4814 15.278 12.6439 15.3906C11.8302 15.5 10.7905 15.5 9.47779 15.5H6.54006C5.22737 15.5 4.18763 15.5 3.37391 15.3906C2.53646 15.278 1.85864 15.0408 1.3241 14.5063C0.789553 13.9717 0.552327 13.2939 0.439735 12.4564C0.330333 11.6427 0.330342 10.603 0.330353 9.2903V7.78113C0.330347 7.04482 0.330341 6.39439 0.349645 5.82155C0.337071 5.77603 0.330353 5.72809 0.330353 5.67857C0.330353 5.6133 0.342027 5.55075 0.363402 5.4929C0.379606 5.1747 0.403753 4.88262 0.439735 4.61498C0.552327 3.77754 0.789553 3.09972 1.3241 2.56517C1.85864 2.03063 2.53646 1.7934 3.37391 1.68081C3.54028 1.65844 3.71611 1.64065 3.90178 1.62649V1.03571C3.90178 0.739847 4.14163 0.5 4.4375 0.5ZM1.41113 6.21429C1.40201 6.68052 1.40178 7.21142 1.40178 7.82143V9.25C1.40178 10.612 1.40292 11.5796 1.50161 12.3137C1.59823 13.0323 1.77942 13.4463 2.08171 13.7486C2.38401 14.0509 2.79804 14.2321 3.51667 14.3287C4.25072 14.4274 5.21834 14.4286 6.58035 14.4286H9.4375C10.7995 14.4286 11.7671 14.4274 12.5012 14.3287C13.2198 14.2321 13.6338 14.0509 13.9361 13.7486C14.2384 13.4463 14.4196 13.0323 14.5162 12.3137C14.6149 11.5796 14.6161 10.612 14.6161 9.25V7.82143C14.6161 7.21142 14.6158 6.68052 14.6067 6.21429H1.41113ZM14.5577 5.14286H1.46013C1.47157 5.00758 1.48525 4.87945 1.50161 4.75775C1.59823 4.03911 1.77942 3.62508 2.08171 3.32279C2.38401 3.0205 2.79804 2.8393 3.51667 2.74268C4.25072 2.644 5.21834 2.64286 6.58035 2.64286H9.4375C10.7995 2.64286 11.7671 2.644 12.5012 2.74268C13.2198 2.8393 13.6338 3.0205 13.9361 3.32279C14.2384 3.62508 14.4196 4.03911 14.5162 4.75775C14.5326 4.87945 14.5463 5.00758 14.5577 5.14286Z" fill="#90CAF9"/>
</svg>
