<svg width="21" height="20" viewBox="0 0 21 20" fill="none" xmlns="http://www.w3.org/2000/svg">
    <path d="M7.89038 3.95772C9.05148 1.87482 9.63202 0.833374 10.5 0.833374C11.3679 0.833374 11.9485 1.87482 13.1096 3.95772L13.41 4.49659C13.7399 5.08848 13.9049 5.38443 14.1621 5.5797C14.4193 5.77497 14.7397 5.84745 15.3804 5.99242L15.9637 6.1244C18.2184 6.63455 19.3458 6.88963 19.614 7.75213C19.8822 8.61463 19.1137 9.51336 17.5766 11.3108L17.1789 11.7758C16.7421 12.2866 16.5237 12.542 16.4254 12.8579C16.3272 13.1739 16.3602 13.5146 16.4262 14.1961L16.4864 14.8166C16.7188 17.2148 16.835 18.4139 16.1328 18.9469C15.4306 19.48 14.375 18.994 12.2639 18.022L11.7178 17.7705C11.1179 17.4943 10.8179 17.3562 10.5 17.3562C10.182 17.3562 9.88208 17.4943 9.28218 17.7705L8.73602 18.0219C6.62493 18.994 5.56939 19.48 4.8672 18.9469C4.16501 18.4139 4.2812 17.2148 4.51359 14.8166L4.57372 14.1961C4.63975 13.5146 4.67277 13.1739 4.57452 12.8579C4.47627 12.542 4.25787 12.2866 3.82107 11.7758L3.4234 11.3108C1.88629 9.51336 1.11774 8.61463 1.38595 7.75213C1.65416 6.88963 2.78152 6.63455 5.03622 6.1244L5.61954 5.99242C6.26026 5.84745 6.58062 5.77497 6.83785 5.5797C7.09507 5.38443 7.26005 5.08848 7.58999 4.49659L7.89038 3.95772Z" stroke="#90CAF9" stroke-width="1.2"/>
</svg>
