<svg width="12" height="12" viewBox="0 0 12 12" fill="none" xmlns="http://www.w3.org/2000/svg">
<path d="M7.67442 3.62791C7.90561 3.62791 8.09302 3.44049 8.09302 3.2093C8.09302 2.97811 7.90561 2.7907 7.67442 2.7907H2.65116C2.41997 2.7907 2.23256 2.97811 2.23256 3.2093C2.23256 3.44049 2.41997 3.62791 2.65116 3.62791H7.67442Z" fill="black" fill-opacity="0.38"/>
<path d="M9.76744 6C9.76744 6.23119 9.58003 6.4186 9.34884 6.4186L2.65116 6.4186C2.41997 6.4186 2.23256 6.23119 2.23256 6C2.23256 5.76881 2.41997 5.5814 2.65116 5.5814L9.34884 5.5814C9.58003 5.5814 9.76744 5.76881 9.76744 6Z" fill="black" fill-opacity="0.38"/>
<path d="M5.44186 9.2093C5.67305 9.2093 5.86047 9.02189 5.86047 8.7907C5.86047 8.55951 5.67305 8.37209 5.44186 8.37209H2.65116C2.41997 8.37209 2.23256 8.55951 2.23256 8.7907C2.23256 9.02189 2.41997 9.2093 2.65116 9.2093H5.44186Z" fill="black" fill-opacity="0.38"/>
<path fill-rule="evenodd" clip-rule="evenodd" d="M12 5.96798C12 4.67957 12 3.66988 11.8941 2.88207C11.7857 2.0757 11.5594 1.43941 11.06 0.939983C10.5606 0.440554 9.9243 0.214318 9.11793 0.105905C8.33012 -1.27582e-05 7.32043 -7.06776e-06 6.03202 1.18068e-07L5.96797 1.18068e-07C4.67957 -7.06776e-06 3.66987 -1.27582e-05 2.88207 0.105905C2.0757 0.214318 1.43941 0.440554 0.939982 0.939983C0.440554 1.43941 0.214317 2.0757 0.105905 2.88207C-1.33514e-05 3.66988 -7.62939e-06 4.67957 -9.53674e-07 5.96798V6.03202C-7.62939e-06 7.32043 -1.33514e-05 8.33012 0.105905 9.11793C0.214317 9.9243 0.440554 10.5606 0.939982 11.06C1.43941 11.5594 2.0757 11.7857 2.88207 11.8941C3.66988 12 4.67957 12 5.96798 12H6.03202C7.32043 12 8.33012 12 9.11793 11.8941C9.9243 11.7857 10.5606 11.5594 11.06 11.06C11.5594 10.5606 11.7857 9.9243 11.8941 9.11793C12 8.33013 12 7.32043 12 6.03203V5.96798ZM10.468 1.53198C10.786 1.84993 10.9684 2.2801 11.0644 2.99362C11.1619 3.71919 11.1628 4.67262 11.1628 6C11.1628 7.32738 11.1619 8.28081 11.0644 9.00638C10.9684 9.7199 10.786 10.1501 10.468 10.468C10.1501 10.786 9.7199 10.9684 9.00638 11.0644C8.28081 11.1619 7.32738 11.1628 6 11.1628C4.67262 11.1628 3.71919 11.1619 2.99362 11.0644C2.2801 10.9684 1.84993 10.786 1.53198 10.468C1.21403 10.1501 1.03158 9.7199 0.935648 9.00638C0.838098 8.28081 0.837209 7.32738 0.837209 6C0.837209 4.67262 0.838098 3.71919 0.935648 2.99362C1.03158 2.2801 1.21403 1.84993 1.53198 1.53198C1.84993 1.21403 2.2801 1.03158 2.99362 0.935649C3.71919 0.838099 4.67262 0.83721 6 0.83721C7.32738 0.83721 8.28081 0.838099 9.00638 0.935649C9.7199 1.03158 10.1501 1.21403 10.468 1.53198Z" fill="black" fill-opacity="0.38"/>
</svg>
