<svg width="17" height="16" viewBox="0 0 17 16" fill="none" xmlns="http://www.w3.org/2000/svg">
<path fill-rule="evenodd" clip-rule="evenodd" d="M4.96432 0.5C5.26019 0.5 5.50004 0.739847 5.50004 1.03571V1.58051C5.97291 1.57142 6.49389 1.57142 7.06688 1.57143H10.0046C10.5776 1.57142 11.0986 1.57142 11.5715 1.58051V1.03571C11.5715 0.739847 11.8113 0.5 12.1072 0.5C12.403 0.5 12.6429 0.739847 12.6429 1.03571V1.62649C12.8286 1.64065 13.0044 1.65844 13.1708 1.68081C14.0082 1.7934 14.686 2.03063 15.2206 2.56517C15.7551 3.09972 15.9923 3.77754 16.1049 4.61498C16.1409 4.88262 16.1651 5.17471 16.1813 5.49291C16.2026 5.55076 16.2143 5.6133 16.2143 5.67857C16.2143 5.72809 16.2076 5.77603 16.195 5.82155C16.2143 6.39439 16.2143 7.04482 16.2143 7.78114V9.29029C16.2143 10.603 16.2143 11.6427 16.1049 12.4564C15.9923 13.2939 15.7551 13.9717 15.2206 14.5063C14.686 15.0408 14.0082 15.278 13.1708 15.3906C12.357 15.5 11.3173 15.5 10.0046 15.5H7.06688C5.7542 15.5 4.71446 15.5 3.90073 15.3906C3.06329 15.278 2.38547 15.0408 1.85092 14.5063C1.31638 13.9717 1.07915 13.2939 0.96656 12.4564C0.857158 11.6427 0.857167 10.603 0.857178 9.2903V7.78113C0.857172 7.04482 0.857166 6.39439 0.87647 5.82155C0.863896 5.77603 0.857178 5.72809 0.857178 5.67857C0.857178 5.6133 0.868852 5.55075 0.890227 5.4929C0.906431 5.1747 0.930578 4.88262 0.96656 4.61498C1.07915 3.77754 1.31638 3.09972 1.85092 2.56517C2.38547 2.03063 3.06329 1.7934 3.90073 1.68081C4.06711 1.65844 4.24293 1.64065 4.42861 1.62649V1.03571C4.42861 0.739847 4.66845 0.5 4.96432 0.5ZM1.93795 6.21429C1.92884 6.68052 1.92861 7.21142 1.92861 7.82143V9.25C1.92861 10.612 1.92974 11.5796 2.02843 12.3137C2.12505 13.0323 2.30624 13.4463 2.60854 13.7486C2.91083 14.0509 3.32486 14.2321 4.0435 14.3287C4.77754 14.4274 5.74516 14.4286 7.10718 14.4286H9.96432C11.3263 14.4286 12.294 14.4274 13.028 14.3287C13.7466 14.2321 14.1607 14.0509 14.463 13.7486C14.7653 13.4463 14.9464 13.0323 15.0431 12.3137C15.1418 11.5796 15.1429 10.612 15.1429 9.25V7.82143C15.1429 7.21142 15.1427 6.68052 15.1335 6.21429H1.93795ZM15.0845 5.14286H1.98695C1.99839 5.00758 2.01207 4.87945 2.02843 4.75775C2.12505 4.03911 2.30624 3.62508 2.60854 3.32279C2.91083 3.0205 3.32486 2.8393 4.0435 2.74268C4.77754 2.644 5.74516 2.64286 7.10718 2.64286H9.96432C11.3263 2.64286 12.294 2.644 13.028 2.74268C13.7466 2.8393 14.1607 3.0205 14.463 3.32279C14.7653 3.62508 14.9464 4.03911 15.0431 4.75775C15.0594 4.87945 15.0731 5.00758 15.0845 5.14286Z" fill="#1976D2"/>
</svg>
