<svg width="11" height="12" viewBox="0 0 11 12" fill="none" xmlns="http://www.w3.org/2000/svg">
<path fill-rule="evenodd" clip-rule="evenodd" d="M2.04651 7.39536C2.04651 7.16417 2.2183 6.97676 2.43023 6.97676H6.52324C6.73516 6.97676 6.90696 7.16417 6.90696 7.39536C6.90696 7.62655 6.73516 7.81396 6.52324 7.81396H2.43023C2.2183 7.81396 2.04651 7.62655 2.04651 7.39536Z" fill="white" fill-opacity="0.7"/>
<path fill-rule="evenodd" clip-rule="evenodd" d="M2.04651 9.34884C2.04651 9.11765 2.2183 8.93024 2.43023 8.93024H5.24417C5.45609 8.93024 5.62789 9.11765 5.62789 9.34884C5.62789 9.58003 5.45609 9.76745 5.24417 9.76745H2.43023C2.2183 9.76745 2.04651 9.58003 2.04651 9.34884Z" fill="white" fill-opacity="0.7"/>
<path fill-rule="evenodd" clip-rule="evenodd" d="M5.62789 0.884212C5.39233 0.840546 5.07123 0.837236 4.49197 0.837236C3.51135 0.837236 2.81433 0.838117 2.28587 0.915274C1.76816 0.990861 1.47068 1.13265 1.25446 1.36853C1.03793 1.60474 0.908149 1.92826 0.838944 2.4898C0.768255 3.06338 0.76744 3.81947 0.76744 4.88374V7.11629C0.76744 8.18056 0.768255 8.93665 0.838944 9.51023C0.908149 10.0718 1.03793 10.3953 1.25446 10.6315C1.47098 10.8677 1.76755 11.0093 2.28229 11.0848C2.80807 11.1619 3.50115 11.1628 4.47673 11.1628H6.52324C7.49882 11.1628 8.1919 11.1619 8.71768 11.0848C9.23242 11.0093 9.52898 10.8677 9.74551 10.6315C9.96203 10.3953 10.0918 10.0718 10.161 9.51023C10.2317 8.93665 10.2325 8.18056 10.2325 7.11629V6.87233C10.2325 6.01502 10.227 5.60861 10.1436 5.30234H8.54227C7.96269 5.30235 7.48906 5.30237 7.11513 5.24752C6.72427 5.1902 6.3854 5.06613 6.11491 4.77105C5.84442 4.47596 5.73069 4.10629 5.67814 3.6799C5.62787 3.27197 5.62788 2.75529 5.62789 2.12301V0.884212ZM6.39533 1.31693V2.09305C6.39533 2.76265 6.39614 3.22275 6.43874 3.56834C6.47984 3.9019 6.55343 4.06545 6.65757 4.17905C6.76171 4.29266 6.91163 4.37294 7.21739 4.41778C7.53418 4.46424 7.95594 4.46513 8.56974 4.46513H9.60295C9.45129 4.30464 9.25697 4.11234 9.00462 3.86459L6.97921 1.876C6.73087 1.63218 6.54605 1.4522 6.39533 1.31693ZM4.5665 1.38862e-05C5.2749 -0.000192706 5.73257 -0.000326139 6.1538 0.176011C6.57503 0.352346 6.91369 0.685028 7.43766 1.19975C7.45575 1.21752 7.47406 1.2355 7.4926 1.25371L9.51801 3.24229C9.53957 3.26346 9.56087 3.28436 9.58191 3.30501C10.1875 3.89923 10.5791 4.28348 10.7898 4.79944C11.0004 5.3154 11.0002 5.88998 11 6.77854C11 6.80942 11 6.84068 11 6.87233V7.14778C11 8.1735 11 8.98595 10.9216 9.62179C10.841 10.2762 10.6711 10.8058 10.2882 11.2235C9.90529 11.6412 9.41978 11.8266 8.81994 11.9145C8.23709 12 7.49234 12 6.5521 12H4.44787C3.50762 12 2.76288 12 2.18003 11.9145C1.58019 11.8266 1.09468 11.6412 0.711797 11.2235C0.328915 10.8058 0.158995 10.2762 0.078348 9.62179C-1.4409e-05 8.98595 -7.9472e-06 8.1735 1.64546e-07 7.14778V4.85225C-7.9472e-06 3.82653 -1.4409e-05 3.01408 0.078348 2.37824C0.158995 1.72387 0.328915 1.19422 0.711797 0.776534C1.09498 0.358518 1.58211 0.173353 2.18407 0.0854652C2.76935 1.24587e-05 3.51779 1.93754e-05 4.46318 2.80915e-05L4.49197 2.82911e-05C4.51712 2.82911e-05 4.54196 2.10387e-05 4.5665 1.38862e-05Z" fill="white" fill-opacity="0.7"/>
</svg>
