<svg width="14" height="15" viewBox="0 0 14 15" fill="none" xmlns="http://www.w3.org/2000/svg">
<path fill-rule="evenodd" clip-rule="evenodd" d="M6.99997 0.5C7.26969 0.5 7.48834 0.718651 7.48834 0.98837V5.01862L8.60812 3.89884C8.79884 3.70812 9.10806 3.70812 9.29878 3.89884C9.4895 4.08956 9.4895 4.39878 9.29878 4.5895L7.3453 6.54298C7.15458 6.7337 6.84536 6.7337 6.65464 6.54298L4.70116 4.5895C4.51044 4.39878 4.51044 4.08956 4.70116 3.89884C4.89188 3.70812 5.2011 3.70812 5.39182 3.89884L6.5116 5.01862V0.98837C6.5116 0.718651 6.73025 0.5 6.99997 0.5ZM9.76975 1.02323C9.79615 0.754806 10.0352 0.558609 10.3036 0.585012C11.4046 0.693313 12.2533 0.946706 12.9033 1.5967C13.486 2.17936 13.7499 2.9217 13.8764 3.86246C14 4.78156 14 5.95953 13.9999 7.46267V7.53739C13.9999 7.7421 13.9999 7.94078 13.9996 8.1336C13.9998 8.13942 13.9999 8.14526 13.9999 8.15113C13.9999 8.15758 13.9998 8.16399 13.9996 8.17037C13.9974 9.37638 13.9821 10.3516 13.8764 11.1376C13.7499 12.0784 13.486 12.8207 12.9033 13.4034C12.3206 13.986 11.5783 14.25 10.6375 14.3764C9.71844 14.5 8.54047 14.5 7.03733 14.5H6.96261C5.45948 14.5 4.2815 14.5 3.3624 14.3764C2.42165 14.25 1.67931 13.986 1.09664 13.4034C0.513978 12.8207 0.250037 12.0784 0.123555 11.1376C0.017886 10.3516 0.00258316 9.37638 0.000372269 8.17037C0.000125035 8.16399 2.92997e-07 8.15758 2.92997e-07 8.15113C2.92997e-07 8.14527 0.000103766 8.13942 0.000308966 8.1336C-2.11337e-06 7.94079 -9.87805e-07 7.7421 1.37748e-07 7.53739V7.46267C-8.24568e-06 5.95953 -1.48937e-05 4.78156 0.123555 3.86246C0.250037 2.9217 0.513978 2.17936 1.09664 1.5967C1.74664 0.946706 2.59533 0.693313 3.69636 0.585012C3.96479 0.55861 4.20379 0.754806 4.2302 1.02323C4.2566 1.29165 4.0604 1.53066 3.79198 1.55706C2.77656 1.65694 2.20062 1.87404 1.7873 2.28736C1.41636 2.6583 1.20351 3.16016 1.09159 3.9926C0.977778 4.8391 0.976741 5.95142 0.976741 7.50003C0.976741 7.55482 0.976742 7.60906 0.976749 7.66276H2.54621C2.5757 7.66276 2.60484 7.66273 2.63364 7.6627C3.13667 7.66217 3.53506 7.66175 3.89344 7.82659C4.25182 7.99142 4.51077 8.29417 4.83774 8.67644C4.85646 8.69833 4.8754 8.72047 4.89459 8.74287L5.28882 9.2028C5.70149 9.68425 5.81732 9.80334 5.95652 9.86736C6.09571 9.93138 6.26151 9.94182 6.89562 9.94182H7.10433C7.73843 9.94182 7.90423 9.93138 8.04342 9.86736C8.18262 9.80334 8.29845 9.68425 8.71112 9.2028L9.10535 8.74287C9.12455 8.72047 9.14349 8.69832 9.16221 8.67644C9.48917 8.29417 9.74812 7.99142 10.1065 7.82659C10.4649 7.66175 10.8633 7.66217 11.3663 7.6627C11.3951 7.66273 11.4242 7.66276 11.4537 7.66276H13.0232C13.0232 7.60906 13.0232 7.55482 13.0232 7.50003C13.0232 5.95142 13.0222 4.8391 12.9084 3.9926C12.7964 3.16016 12.5836 2.6583 12.2126 2.28736C11.7993 1.87404 11.2234 1.65694 10.208 1.55706C9.93954 1.53066 9.74335 1.29165 9.76975 1.02323ZM13.0209 8.6395H11.4537C10.8196 8.6395 10.6538 8.64995 10.5146 8.71397C10.3754 8.77799 10.2596 8.89707 9.84695 9.37852L9.45272 9.83846C9.43352 9.86085 9.41457 9.883 9.39585 9.90489C9.06889 10.2872 8.80994 10.5899 8.45156 10.7547C8.09318 10.9196 7.69479 10.9192 7.19176 10.9186C7.16297 10.9186 7.13382 10.9186 7.10433 10.9186H6.89562C6.86612 10.9186 6.83698 10.9186 6.80818 10.9186C6.30515 10.9192 5.90677 10.9196 5.54838 10.7547C5.19 10.5899 4.93105 10.2872 4.60409 9.90488C4.58537 9.883 4.56642 9.86085 4.54723 9.83846L4.153 9.37852C3.74033 8.89707 3.6245 8.77799 3.4853 8.71397C3.34611 8.64995 3.18031 8.6395 2.54621 8.6395H0.97902C0.985164 9.61797 1.00785 10.3847 1.09159 11.0075C1.20351 11.8399 1.41636 12.3418 1.7873 12.7127C2.15824 13.0836 2.6601 13.2965 3.49255 13.4084C4.33904 13.5222 5.45137 13.5233 6.99997 13.5233C8.54858 13.5233 9.6609 13.5222 10.5074 13.4084C11.3398 13.2965 11.8417 13.0836 12.2126 12.7127C12.5836 12.3418 12.7964 11.8399 12.9084 11.0075C12.9921 10.3847 13.0148 9.61797 13.0209 8.6395Z" fill="white" fill-opacity="0.7"/>
</svg>
