<svg width="16" height="16" viewBox="0 0 16 16" fill="none" xmlns="http://www.w3.org/2000/svg">
<path fill-rule="evenodd" clip-rule="evenodd" d="M7.43316 1.15265C6.97619 1.21304 6.41192 1.34266 5.60923 1.52789L4.69523 1.73882C4.01727 1.89527 3.55037 2.00373 3.19376 2.12612C2.84948 2.24428 2.65471 2.36077 2.50774 2.50774C2.36077 2.65471 2.24428 2.84948 2.12612 3.19376C2.00373 3.55037 1.89527 4.01727 1.73882 4.69523L1.52789 5.60923C1.34266 6.41192 1.21304 6.97619 1.15265 7.43316C1.09382 7.87833 1.10739 8.17954 1.18592 8.45337C1.26445 8.72719 1.41259 8.98981 1.69842 9.33614C1.99182 9.69164 2.4008 10.1014 2.98331 10.6839L4.34489 12.0455C5.3566 13.0572 6.07652 13.7755 6.69545 14.2477C7.30149 14.7101 7.74466 14.8837 8.19522 14.8837C8.64578 14.8837 9.08894 14.7101 9.69499 14.2477C10.3139 13.7755 11.0338 13.0572 12.0455 12.0455C13.0572 11.0338 13.7755 10.3139 14.2477 9.69499C14.7101 9.08894 14.8837 8.64578 14.8837 8.19522C14.8837 7.74465 14.7101 7.30149 14.2477 6.69545C13.7755 6.07652 13.0572 5.3566 12.0455 4.34489L10.6839 2.98331C10.1014 2.4008 9.69164 1.99182 9.33614 1.69842C8.98981 1.41259 8.72719 1.26445 8.45337 1.18592C8.17954 1.10739 7.87833 1.09382 7.43316 1.15265ZM7.28691 0.0459978C7.82072 -0.0245488 8.28881 -0.0225579 8.76111 0.112897C9.23341 0.248351 9.6314 0.494747 10.0467 0.837492C10.4481 1.16883 10.8952 1.61593 11.4538 2.17449L12.8646 3.5853C13.8399 4.56063 14.6122 5.33282 15.1352 6.01833C15.6733 6.72367 16 7.40245 16 8.19522C16 8.98798 15.6733 9.66676 15.1352 10.3721C14.6122 11.0576 13.8399 11.8298 12.8646 12.8051L12.8051 12.8646C11.8298 13.8399 11.0576 14.6122 10.3721 15.1352C9.66676 15.6733 8.98798 16 8.19522 16C7.40245 16 6.72367 15.6733 6.01833 15.1352C5.33282 14.6121 4.56062 13.8399 3.58527 12.8646L2.17448 11.4538C1.61592 10.8952 1.16882 10.4481 0.837492 10.0467C0.494747 9.6314 0.248351 9.23341 0.112897 8.76111C-0.0225579 8.28881 -0.0245488 7.82072 0.0459977 7.28691C0.114195 6.77087 0.256376 6.15477 0.434 5.3851L0.657751 4.41551C0.805967 3.77319 0.926832 3.24941 1.0703 2.83139C1.22013 2.39483 1.40884 2.02798 1.71841 1.71841C2.02798 1.40884 2.39483 1.22013 2.83139 1.0703C3.24941 0.926832 3.77319 0.805967 4.41551 0.65775L5.38509 0.434001C6.15477 0.256376 6.77087 0.114195 7.28691 0.0459978ZM6.13279 5.01964C5.76951 4.65636 5.18052 4.65636 4.81724 5.01964C4.45397 5.38292 4.45397 5.97191 4.81724 6.33519C5.18052 6.69847 5.76951 6.69847 6.13279 6.33519C6.49607 5.97191 6.49607 5.38292 6.13279 5.01964ZM4.02792 4.23031C4.82713 3.4311 6.12291 3.4311 6.92212 4.23031C7.72133 5.02953 7.72133 6.32531 6.92212 7.12452C6.12291 7.92373 4.82713 7.92373 4.02792 7.12452C3.2287 6.32531 3.2287 5.02953 4.02792 4.23031ZM13.2473 7.2485C13.4653 7.46646 13.4653 7.81986 13.2473 8.03783L8.05365 13.2317C7.83568 13.4497 7.48229 13.4497 7.26432 13.2317C7.04635 13.0137 7.04634 12.6603 7.26431 12.4424L12.458 7.24851C12.6759 7.03054 13.0293 7.03054 13.2473 7.2485Z" fill="#90CAF9"/>
</svg>
