<svg width="13" height="12" viewBox="0 0 14 12" fill="none" xmlns="http://www.w3.org/2000/svg">
<path fill-rule="evenodd" clip-rule="evenodd" d="M4.8996 0.135181C5.07984 -0.0450605 5.37207 -0.0450605 5.55231 0.135181L6.78308 1.36595C6.91508 1.49795 6.95457 1.69647 6.88313 1.86893C6.81169 2.0414 6.6434 2.15385 6.45673 2.15385H5.22596C3.10179 2.15385 1.3798 3.87583 1.3798 6C1.3798 8.12415 3.10193 9.84615 5.22613 9.84615H5.53365C5.78855 9.84615 5.99519 10.0528 5.99519 10.3077C5.99519 10.5626 5.78855 10.7692 5.53365 10.7692H5.22613C2.59218 10.7692 0.456726 8.634 0.456726 6C0.456726 3.36603 2.59198 1.23077 5.22596 1.23077H5.34247L4.8996 0.787895C4.71936 0.607653 4.71936 0.315423 4.8996 0.135181ZM8.14903 1.69231C8.14903 1.43741 8.35567 1.23077 8.61057 1.23077H8.91826C11.5522 1.23077 13.6875 3.36603 13.6875 6C13.6875 8.63397 11.5522 10.7692 8.91826 10.7692H8.80175L9.24462 11.2121C9.42486 11.3923 9.42486 11.6846 9.24462 11.8648C9.06438 12.0451 8.77215 12.0451 8.59191 11.8648L7.36114 10.634C7.22914 10.5021 7.18965 10.3035 7.26109 10.1311C7.33253 9.9586 7.50082 9.84615 7.6875 9.84615H8.91826C11.0424 9.84615 12.7644 8.12417 12.7644 6C12.7644 3.87583 11.0424 2.15385 8.91826 2.15385H8.61057C8.35567 2.15385 8.14903 1.94721 8.14903 1.69231Z" fill="#90CAF9"/>
</svg>

