<svg width="15" height="15" viewBox="0 0 15 15" fill="none" xmlns="http://www.w3.org/2000/svg">
    <circle cx="7.5" cy="7.5" r="7.5" fill="none"/>
    <path d="M15 7.5C15 11.6421 11.6421 15 7.5 15C3.35786 15 0 11.6421 0 7.5C0 3.35786 3.35786 0 7.5 0C11.6421 0 15 3.35786 15 7.5ZM2.25 7.5C2.25 10.3995 4.6005 12.75 7.5 12.75C10.3995 12.75 12.75 10.3995 12.75 7.5C12.75 4.6005 10.3995 2.25 7.5 2.25C4.6005 2.25 2.25 4.6005 2.25 7.5Z" fill="black" fill-opacity="0.12"/>   
    
    <!-- <mask id="path-1-outside-1_2763_472" maskUnits="userSpaceOnUse" x="-0.3125" y="-0.5" width="17" height="17" fill="black">
    <rect fill="white" x="-0.3125" y="-0.5" width="17" height="17"/>
    <path d="M15.6875 8C15.6875 12.1421 12.3296 15.5 8.1875 15.5C4.04536 15.5 0.6875 12.1421 0.6875 8C0.6875 3.85786 4.04536 0.5 8.1875 0.5C12.3296 0.5 15.6875 3.85786 15.6875 8ZM2.9375 8C2.9375 10.8995 5.288 13.25 8.1875 13.25C11.087 13.25 13.4375 10.8995 13.4375 8C13.4375 5.1005 11.087 2.75 8.1875 2.75C5.288 2.75 2.9375 5.1005 2.9375 8Z"/>
    </mask>
    <path d="M15.6875 8C15.6875 12.1421 12.3296 15.5 8.1875 15.5C4.04536 15.5 0.6875 12.1421 0.6875 8C0.6875 3.85786 4.04536 0.5 8.1875 0.5C12.3296 0.5 15.6875 3.85786 15.6875 8ZM2.9375 8C2.9375 10.8995 5.288 13.25 8.1875 13.25C11.087 13.25 13.4375 10.8995 13.4375 8C13.4375 5.1005 11.087 2.75 8.1875 2.75C5.288 2.75 2.9375 5.1005 2.9375 8Z" fill="black" fill-opacity="0.12"/>
    <path d="M15.6875 8C15.6875 12.1421 12.3296 15.5 8.1875 15.5C4.04536 15.5 0.6875 12.1421 0.6875 8C0.6875 3.85786 4.04536 0.5 8.1875 0.5C12.3296 0.5 15.6875 3.85786 15.6875 8ZM2.9375 8C2.9375 10.8995 5.288 13.25 8.1875 13.25C11.087 13.25 13.4375 10.8995 13.4375 8C13.4375 5.1005 11.087 2.75 8.1875 2.75C5.288 2.75 2.9375 5.1005 2.9375 8Z" stroke="black" stroke-opacity="0.2" stroke-width="0.4" mask="url(#path-1-outside-1_2763_472)"/> -->
</svg>
