<svg width="10" height="15" viewBox="0 0 12 16" fill="none" xmlns="http://www.w3.org/2000/svg">
<path d="M1.21186 0.5C1.50146 0.5 1.73623 0.73427 1.73623 1.02326V2.31395L2.93924 2.07386C4.09321 1.84355 5.2894 1.95315 6.38205 2.38928L6.52442 2.44611C7.61591 2.88178 8.81723 2.96314 9.9577 2.67863C10.4871 2.54655 11 2.94613 11 3.49071V8.6305C11 9.08001 10.6934 9.47183 10.2564 9.58085L10.1065 9.61826C8.86928 9.9269 7.5661 9.83864 6.38205 9.36603C5.2894 8.92989 4.09321 8.8203 2.93924 9.0506L1.73623 9.2907V14.9767C1.73623 15.2657 1.50146 15.5 1.21186 15.5C0.922266 15.5 0.6875 15.2657 0.6875 14.9767V1.02326C0.6875 0.73427 0.922266 0.5 1.21186 0.5Z" fill="white" fill-opacity="0.12"/>
<path d="M1.83623 1.02326C1.83623 0.678842 1.55649 0.4 1.21186 0.4C0.867237 0.4 0.5875 0.678842 0.5875 1.02326V14.9767C0.5875 15.3212 0.867237 15.6 1.21186 15.6C1.55649 15.6 1.83623 15.3212 1.83623 14.9767V9.37271L2.95881 9.14867C4.0938 8.92215 5.27031 9.02994 6.34498 9.4589C7.54851 9.9393 8.87314 10.029 10.1307 9.71529L10.2806 9.67788C10.762 9.55778 11.1 9.12604 11.1 8.6305V3.49071C11.1 2.88082 10.5258 2.43385 9.9335 2.5816C8.81338 2.86104 7.6335 2.78113 6.56149 2.35324L6.41912 2.29641C5.30848 1.85309 4.09262 1.7417 2.91967 1.97579L1.83623 2.19202V1.02326Z" stroke="white" stroke-opacity="0.2" stroke-width="0.2" stroke-linecap="round"/>
</svg>
