<svg width="10" height="10" viewBox="0 0 10 10" fill="none" xmlns="http://www.w3.org/2000/svg">
<path d="M9.28571 5.71429H5.71429V9.28571C5.71429 9.67857 5.39286 10 5 10C4.60714 10 4.28571 9.67857 4.28571 9.28571V5.71429H0.714286C0.321429 5.71429 0 5.39286 0 5C0 4.60714 0.321429 4.28571 0.714286 4.28571H4.28571V0.714286C4.28571 0.321429 4.60714 0 5 0C5.39286 0 5.71429 0.321429 5.71429 0.714286V4.28571H9.28571C9.67857 4.28571 10 4.60714 10 5C10 5.39286 9.67857 5.71429 9.28571 5.71429Z" fill="#90CAF9"/>
</svg>
