<svg width="15" height="15" viewBox="0 0 15 15" fill="none" xmlns="http://www.w3.org/2000/svg">
<mask id="path-1-outside-1_2835_473" maskUnits="userSpaceOnUse" x="-0.3125" y="-0.5" width="15" height="15" fill="black">
<rect fill="white" x="-0.3125" y="-0.5" width="15" height="15"/>
<path d="M15 7.5C15 11.6421 11.6421 15 7.5 15C3.35786 15 0 11.6421 0 7.5C0 3.35786 3.35786 0 7.5 0C11.6421 0 15 3.35786 15 7.5ZM2.25 7.5C2.25 10.3995 4.6005 12.75 7.5 12.75C10.3995 12.75 12.75 10.3995 12.75 7.5C12.75 4.6005 10.3995 2.25 7.5 2.25C4.6005 2.25 2.25 4.6005 2.25 7.5Z"/>
</mask>
<path d="M15 7.5C15 11.6421 11.6421 15 7.5 15C3.35786 15 0 11.6421 0 7.5C0 3.35786 3.35786 0 7.5 0C11.6421 0 15 3.35786 15 7.5ZM2.25 7.5C2.25 10.3995 4.6005 12.75 7.5 12.75C10.3995 12.75 12.75 10.3995 12.75 7.5C12.75 4.6005 10.3995 2.25 7.5 2.25C4.6005 2.25 2.25 4.6005 2.25 7.5Z" fill="white" fill-opacity="0.12"/>
<path d="M15 7.5C15 11.6421 11.6421 15 7.5 15C3.35786 15 0 11.6421 0 7.5C0 3.35786 3.35786 0 7.5 0C11.6421 0 15 3.35786 15 7.5ZM2.25 7.5C2.25 10.3995 4.6005 12.75 7.5 12.75C10.3995 12.75 12.75 10.3995 12.75 7.5C12.75 4.6005 10.3995 2.25 7.5 2.25C4.6005 2.25 2.25 4.6005 2.25 7.5Z" stroke="white" stroke-opacity="0.2" stroke-width="0.4" mask="url(#path-1-outside-1_2835_473)"/>
</svg>
