<svg width="10" height="15" viewBox="0 0 12 17" fill="#D32F2F" xmlns="http://www.w3.org/2000/svg">
    <path d="M1.52436 1C1.81396 1 2.04873 1.23427 2.04873 1.52326V2.81395L3.25174 2.57386C4.40571 2.34355 5.6019 2.45315 6.69455 2.88928L6.83692 2.94611C7.92841 3.38178 9.12973 3.46314 10.2702 3.17863C10.7996 3.04655 11.3125 3.44613 11.3125 3.99071V9.1305C11.3125 9.58001 11.0059 9.97183 10.5689 10.0809L10.419 10.1183C9.18178 10.4269 7.8786 10.3386 6.69455 9.86603C5.6019 9.42989 4.40571 9.3203 3.25174 9.5506L2.04873 9.7907V15.4767C2.04873 15.7657 1.81396 16 1.52436 16C1.23477 16 1 15.7657 1 15.4767V1.52326C1 1.23427 1.23477 1 1.52436 1Z" fill="black" fill-opacity="0.12"/>
    <path d="M2.14873 1.52326C2.14873 1.17884 1.86899 0.9 1.52436 0.9C1.17974 0.9 0.9 1.17884 0.9 1.52326V15.4767C0.9 15.8212 1.17974 16.1 1.52436 16.1C1.86899 16.1 2.14873 15.8212 2.14873 15.4767V9.87271L3.27131 9.64867C4.4063 9.42215 5.58281 9.52994 6.65748 9.9589C7.86101 10.4393 9.18564 10.529 10.4432 10.2153L10.5931 10.1779C11.0745 10.0578 11.4125 9.62604 11.4125 9.1305V3.99071C11.4125 3.38082 10.8383 2.93385 10.246 3.0816C9.12588 3.36104 7.946 3.28113 6.87399 2.85324L6.73162 2.79641C5.62098 2.35309 4.40512 2.2417 3.23217 2.47579L2.14873 2.69202V1.52326Z" stroke="black" stroke-opacity="0.2" stroke-width="0.2" stroke-linecap="round"/>
</svg>