<svg width="14" height="22" viewBox="0 0 14 22" fill="none" xmlns="http://www.w3.org/2000/svg">
<path fill-rule="evenodd" clip-rule="evenodd" d="M6.99997 4.5C7.26969 4.5 7.48834 4.71865 7.48834 4.98837V9.01862L8.60812 7.89884C8.79884 7.70812 9.10806 7.70812 9.29878 7.89884C9.4895 8.08956 9.4895 8.39878 9.29878 8.5895L7.3453 10.543C7.15458 10.7337 6.84536 10.7337 6.65464 10.543L4.70116 8.5895C4.51044 8.39878 4.51044 8.08956 4.70116 7.89884C4.89188 7.70812 5.2011 7.70812 5.39182 7.89884L6.5116 9.01862V4.98837C6.5116 4.71865 6.73025 4.5 6.99997 4.5ZM9.76975 5.02323C9.79615 4.75481 10.0352 4.55861 10.3036 4.58501C11.4046 4.69331 12.2533 4.94671 12.9033 5.5967C13.486 6.17936 13.7499 6.9217 13.8764 7.86246C14 8.78156 14 9.95953 13.9999 11.4627V11.5374C13.9999 11.7421 13.9999 11.9408 13.9996 12.1336C13.9998 12.1394 13.9999 12.1453 13.9999 12.1511C13.9999 12.1576 13.9998 12.164 13.9996 12.1704C13.9974 13.3764 13.9821 14.3516 13.8764 15.1376C13.7499 16.0784 13.486 16.8207 12.9033 17.4034C12.3206 17.986 11.5783 18.25 10.6375 18.3764C9.71844 18.5 8.54047 18.5 7.03733 18.5H6.96261C5.45948 18.5 4.2815 18.5 3.3624 18.3764C2.42165 18.25 1.67931 17.986 1.09664 17.4034C0.513978 16.8207 0.250037 16.0784 0.123555 15.1376C0.017886 14.3516 0.00258316 13.3764 0.000372269 12.1704C0.000125035 12.164 2.92997e-07 12.1576 2.92997e-07 12.1511C2.92997e-07 12.1453 0.000103766 12.1394 0.000308966 12.1336C-2.11337e-06 11.9408 -9.87805e-07 11.7421 1.37748e-07 11.5374V11.4627C-8.24568e-06 9.95953 -1.48937e-05 8.78156 0.123555 7.86246C0.250037 6.9217 0.513978 6.17936 1.09664 5.5967C1.74664 4.94671 2.59533 4.69331 3.69636 4.58501C3.96479 4.55861 4.20379 4.75481 4.2302 5.02323C4.2566 5.29165 4.0604 5.53066 3.79198 5.55706C2.77656 5.65694 2.20062 5.87404 1.7873 6.28736C1.41636 6.6583 1.20351 7.16016 1.09159 7.9926C0.977778 8.8391 0.976741 9.95142 0.976741 11.5C0.976741 11.5548 0.976742 11.6091 0.976749 11.6628H2.54621C2.5757 11.6628 2.60484 11.6627 2.63364 11.6627C3.13667 11.6622 3.53506 11.6618 3.89344 11.8266C4.25182 11.9914 4.51077 12.2942 4.83774 12.6764C4.85646 12.6983 4.8754 12.7205 4.89459 12.7429L5.28882 13.2028C5.70149 13.6842 5.81732 13.8033 5.95652 13.8674C6.09571 13.9314 6.26151 13.9418 6.89562 13.9418H7.10433C7.73843 13.9418 7.90423 13.9314 8.04342 13.8674C8.18262 13.8033 8.29845 13.6842 8.71112 13.2028L9.10535 12.7429C9.12455 12.7205 9.14349 12.6983 9.16221 12.6764C9.48917 12.2942 9.74812 11.9914 10.1065 11.8266C10.4649 11.6618 10.8633 11.6622 11.3663 11.6627C11.3951 11.6627 11.4242 11.6628 11.4537 11.6628H13.0232C13.0232 11.6091 13.0232 11.5548 13.0232 11.5C13.0232 9.95142 13.0222 8.8391 12.9084 7.9926C12.7964 7.16016 12.5836 6.6583 12.2126 6.28736C11.7993 5.87404 11.2234 5.65694 10.208 5.55706C9.93954 5.53066 9.74335 5.29165 9.76975 5.02323ZM13.0209 12.6395H11.4537C10.8196 12.6395 10.6538 12.6499 10.5146 12.714C10.3754 12.778 10.2596 12.8971 9.84695 13.3785L9.45272 13.8385C9.43352 13.8609 9.41457 13.883 9.39585 13.9049C9.06889 14.2872 8.80994 14.5899 8.45156 14.7547C8.09318 14.9196 7.69479 14.9192 7.19176 14.9186C7.16297 14.9186 7.13382 14.9186 7.10433 14.9186H6.89562C6.86612 14.9186 6.83698 14.9186 6.80818 14.9186C6.30515 14.9192 5.90677 14.9196 5.54838 14.7547C5.19 14.5899 4.93105 14.2872 4.60409 13.9049C4.58537 13.883 4.56642 13.8609 4.54723 13.8385L4.153 13.3785C3.74033 12.8971 3.6245 12.778 3.4853 12.714C3.34611 12.6499 3.18031 12.6395 2.54621 12.6395H0.97902C0.985164 13.618 1.00785 14.3847 1.09159 15.0075C1.20351 15.8399 1.41636 16.3418 1.7873 16.7127C2.15824 17.0836 2.6601 17.2965 3.49255 17.4084C4.33904 17.5222 5.45137 17.5233 6.99997 17.5233C8.54858 17.5233 9.6609 17.5222 10.5074 17.4084C11.3398 17.2965 11.8417 17.0836 12.2126 16.7127C12.5836 16.3418 12.7964 15.8399 12.9084 15.0075C12.9921 14.3847 13.0148 13.618 13.0209 12.6395Z" fill="black" fill-opacity="0.6"/>
</svg>
