<svg width="25" height="12" viewBox="0 0 25 12" fill="none" xmlns="http://www.w3.org/2000/svg">
<path fill-rule="evenodd" clip-rule="evenodd" d="M13.968 1.18069e-07H14.032C15.3204 -7.06776e-06 16.3301 -1.27582e-05 17.1179 0.105905C17.9243 0.214318 18.5606 0.440554 19.06 0.939983C19.5594 1.43941 19.7857 2.0757 19.8941 2.88207C20 3.66988 20 4.67957 20 5.96798V6.03202C20 7.32043 20 8.33013 19.8941 9.11793C19.7857 9.9243 19.5594 10.5606 19.06 11.06C18.5606 11.5594 17.9243 11.7857 17.1179 11.8941C16.3301 12 15.3204 12 14.032 12H13.968C12.6796 12 11.6699 12 10.8821 11.8941C10.0757 11.7857 9.43941 11.5594 8.93998 11.06C8.44055 10.5606 8.21432 9.9243 8.10591 9.11793C7.99999 8.33013 7.99999 7.32043 8 6.03203V5.96798C7.99999 4.67957 7.99999 3.66988 8.10591 2.88207C8.21432 2.0757 8.44055 1.43941 8.93998 0.939983C9.43941 0.440554 10.0757 0.214318 10.8821 0.105905C11.6699 -1.27582e-05 12.6796 -7.06776e-06 13.968 1.18069e-07ZM10.9936 0.935649C10.2801 1.03158 9.84993 1.21403 9.53198 1.53198C9.21403 1.84993 9.03158 2.2801 8.93565 2.99362C8.8381 3.71919 8.83721 4.67262 8.83721 6C8.83721 7.32738 8.8381 8.28081 8.93565 9.00638C9.03158 9.7199 9.21403 10.1501 9.53198 10.468C9.84993 10.786 10.2801 10.9684 10.9936 11.0644C11.7192 11.1619 12.6726 11.1628 14 11.1628C15.3274 11.1628 16.2808 11.1619 17.0064 11.0644C17.7199 10.9684 18.1501 10.786 18.468 10.468C18.786 10.1501 18.9684 9.7199 19.0644 9.00638C19.1619 8.28081 19.1628 7.32738 19.1628 6C19.1628 4.67262 19.1619 3.71919 19.0644 2.99362C18.9684 2.2801 18.786 1.84993 18.468 1.53198C18.1501 1.21403 17.7199 1.03158 17.0064 0.935649C16.2808 0.838099 15.3274 0.83721 14 0.83721C12.6726 0.83721 11.7192 0.838099 10.9936 0.935649ZM13.1724 2.90618C13.3398 3.06562 13.3463 3.33058 13.1868 3.498L11.5922 5.17241C11.5132 5.25537 11.4036 5.30233 11.289 5.30233C11.1745 5.30233 11.0649 5.25537 10.9859 5.17241L10.348 4.50265C10.1886 4.33523 10.1951 4.07027 10.3625 3.91083C10.5299 3.75139 10.7948 3.75785 10.9543 3.92526L11.289 4.27674L12.5806 2.92061C12.74 2.7532 13.005 2.74673 13.1724 2.90618ZM14.1395 4.32558C14.1395 4.09439 14.327 3.90698 14.5581 3.90698H17.3488C17.58 3.90698 17.7674 4.09439 17.7674 4.32558C17.7674 4.55677 17.58 4.74419 17.3488 4.74419H14.5581C14.327 4.74419 14.1395 4.55677 14.1395 4.32558ZM13.1724 6.81315C13.3398 6.97259 13.3463 7.23756 13.1868 7.40497L11.5922 9.07939C11.5132 9.16235 11.4036 9.2093 11.289 9.2093C11.1745 9.2093 11.0649 9.16235 10.9859 9.07939L10.348 8.40962C10.1886 8.24221 10.1951 7.97724 10.3625 7.8178C10.5299 7.65836 10.7948 7.66482 10.9543 7.83224L11.289 8.18372L12.5806 6.82759C12.74 6.66017 13.005 6.65371 13.1724 6.81315ZM14.1395 8.23256C14.1395 8.00137 14.327 7.81395 14.5581 7.81395H17.3488C17.58 7.81395 17.7674 8.00137 17.7674 8.23256C17.7674 8.46375 17.58 8.65116 17.3488 8.65116H14.5581C14.327 8.65116 14.1395 8.46375 14.1395 8.23256Z" fill="black" fill-opacity="0.6"/>
</svg>
